<?xml version="1.0" encoding="utf-8" standalone="no"?>
<!DOCTYPE svg PUBLIC "-//W3C//DTD SVG 1.1//EN"
  "http://www.w3.org/Graphics/SVG/1.1/DTD/svg11.dtd">
<svg xmlns:xlink="http://www.w3.org/1999/xlink" width="576pt" height="432pt" viewBox="0 0 576 432" xmlns="http://www.w3.org/2000/svg" version="1.1">
 <metadata>
  <rdf:RDF xmlns:dc="http://purl.org/dc/elements/1.1/" xmlns:cc="http://creativecommons.org/ns#" xmlns:rdf="http://www.w3.org/1999/02/22-rdf-syntax-ns#">
   <cc:Work>
    <dc:type rdf:resource="http://purl.org/dc/dcmitype/StillImage"/>
    <dc:date>2025-08-23T00:19:13.848599</dc:date>
    <dc:format>image/svg+xml</dc:format>
    <dc:creator>
     <cc:Agent>
      <dc:title>Matplotlib v3.10.3, https://matplotlib.org/</dc:title>
     </cc:Agent>
    </dc:creator>
   </cc:Work>
  </rdf:RDF>
 </metadata>
 <defs>
  <style type="text/css">*{stroke-linejoin: round; stroke-linecap: butt}</style>
 </defs>
 <g id="figure_1">
  <g id="patch_1">
   <path d="M 0 432 
L 576 432 
L 576 0 
L 0 0 
z
" style="fill: #ffffff"/>
  </g>
  <g id="axes_1">
   <g id="patch_2">
    <path d="M 115.2 367.2 
L 460.8 367.2 
L 460.8 43.2 
L 115.2 43.2 
z
" style="fill: #ffffff"/>
   </g>
   <g id="matplotlib.axis_1">
    <g id="xtick_1">
     <g id="line2d_1">
      <path d="M 170.181818 367.2 
L 170.181818 43.2 
" clip-path="url(#p219d71d399)" style="fill: none; stroke: #b0b0b0; stroke-opacity: 0.25; stroke-width: 0.75; stroke-linecap: square"/>
     </g>
     <g id="line2d_2">
      <defs>
       <path id="mcabf6662ca" d="M 0 0 
L 0 3.5 
" style="stroke: #000000; stroke-width: 0.8"/>
      </defs>
      <g>
       <use xlink:href="#mcabf6662ca" x="170.181818" y="367.2" style="stroke: #000000; stroke-width: 0.8"/>
      </g>
     </g>
     <g id="text_1">
      <!-- 2018 -->
      <g transform="translate(146.175568 386.45625) scale(0.2 -0.2)">
       <defs>
        <path id="CourierNewPSMT-32" d="M 791 263 
L 2806 263 
L 2806 366 
Q 2806 459 2843 500 
Q 2881 541 2941 541 
Q 2997 541 3034 500 
Q 3072 459 3072 366 
L 3072 0 
L 534 0 
L 534 388 
Q 1334 1106 2091 1850 
Q 2444 2197 2575 2359 
Q 2706 2522 2754 2645 
Q 2803 2769 2803 2894 
Q 2803 3231 2531 3490 
Q 2259 3750 1875 3750 
Q 1531 3750 1265 3553 
Q 1000 3356 922 3066 
Q 903 2991 875 2969 
Q 838 2938 788 2938 
Q 734 2938 698 2973 
Q 663 3009 663 3059 
Q 663 3209 827 3465 
Q 991 3722 1280 3869 
Q 1569 4016 1872 4016 
Q 2363 4016 2716 3675 
Q 3069 3334 3069 2903 
Q 3069 2722 3009 2570 
Q 2950 2419 2808 2239 
Q 2666 2059 2297 1697 
Q 1372 784 791 281 
L 791 263 
z
" transform="scale(0.015625)"/>
        <path id="CourierNewPSMT-30" d="M 3125 2284 
L 3125 1634 
Q 3125 788 2722 294 
Q 2406 -94 1925 -94 
Q 1694 -94 1489 -1 
Q 1284 91 1141 256 
Q 1050 359 942 587 
Q 834 816 788 1006 
Q 716 1275 716 1634 
L 716 2284 
Q 716 3134 1119 3628 
Q 1434 4016 1916 4016 
Q 2150 4016 2353 3923 
Q 2556 3831 2700 3666 
Q 2794 3559 2900 3331 
Q 3006 3103 3056 2916 
Q 3125 2647 3125 2284 
z
M 2863 2250 
Q 2863 2622 2758 2942 
Q 2653 3263 2522 3453 
Q 2444 3563 2319 3641 
Q 2141 3750 1919 3750 
Q 1478 3750 1228 3300 
Q 978 2850 978 2250 
L 978 1672 
Q 978 1300 1083 978 
Q 1188 656 1322 466 
Q 1397 359 1522 281 
Q 1700 169 1925 169 
Q 2363 169 2613 620 
Q 2863 1072 2863 1672 
L 2863 2250 
z
" transform="scale(0.015625)"/>
        <path id="CourierNewPSMT-31" d="M 2050 3975 
L 2050 263 
L 2950 263 
Q 3044 263 3084 227 
Q 3125 191 3125 131 
Q 3125 75 3084 37 
Q 3044 0 2950 0 
L 888 0 
Q 794 0 753 37 
Q 713 75 713 131 
Q 713 191 753 227 
Q 794 263 888 263 
L 1788 263 
L 1788 3613 
L 931 3344 
Q 869 3325 841 3325 
Q 794 3325 755 3364 
Q 716 3403 716 3456 
Q 716 3503 747 3544 
Q 772 3569 850 3597 
L 2050 3975 
z
" transform="scale(0.015625)"/>
        <path id="CourierNewPSMT-38" d="M 2459 2034 
Q 2788 1875 2955 1614 
Q 3122 1353 3122 1053 
Q 3122 588 2772 247 
Q 2422 -94 1922 -94 
Q 1422 -94 1072 247 
Q 722 588 722 1053 
Q 722 1350 889 1611 
Q 1056 1872 1388 2034 
Q 1100 2200 969 2378 
Q 788 2631 788 2938 
Q 788 3369 1120 3692 
Q 1453 4016 1922 4016 
Q 2394 4016 2725 3692 
Q 3056 3369 3056 2938 
Q 3056 2631 2875 2381 
Q 2747 2200 2459 2034 
z
M 2788 2928 
Q 2788 3266 2536 3508 
Q 2284 3750 1919 3750 
Q 1556 3750 1304 3506 
Q 1053 3263 1053 2931 
Q 1053 2625 1301 2395 
Q 1550 2166 1919 2166 
Q 2291 2166 2539 2395 
Q 2788 2625 2788 2928 
z
M 2859 1047 
Q 2859 1394 2590 1650 
Q 2322 1906 1922 1906 
Q 1522 1906 1253 1650 
Q 984 1394 984 1050 
Q 984 694 1254 431 
Q 1525 169 1922 169 
Q 2319 169 2589 431 
Q 2859 694 2859 1047 
z
" transform="scale(0.015625)"/>
       </defs>
       <use xlink:href="#CourierNewPSMT-32"/>
       <use xlink:href="#CourierNewPSMT-30" transform="translate(60.009766 0)"/>
       <use xlink:href="#CourierNewPSMT-31" transform="translate(120.019531 0)"/>
       <use xlink:href="#CourierNewPSMT-38" transform="translate(180.029297 0)"/>
      </g>
     </g>
    </g>
    <g id="xtick_2">
     <g id="line2d_3">
      <path d="M 248.727273 367.2 
L 248.727273 43.2 
" clip-path="url(#p219d71d399)" style="fill: none; stroke: #b0b0b0; stroke-opacity: 0.25; stroke-width: 0.75; stroke-linecap: square"/>
     </g>
     <g id="line2d_4">
      <g>
       <use xlink:href="#mcabf6662ca" x="248.727273" y="367.2" style="stroke: #000000; stroke-width: 0.8"/>
      </g>
     </g>
     <g id="text_2">
      <!-- 2020 -->
      <g transform="translate(224.721023 386.45625) scale(0.2 -0.2)">
       <use xlink:href="#CourierNewPSMT-32"/>
       <use xlink:href="#CourierNewPSMT-30" transform="translate(60.009766 0)"/>
       <use xlink:href="#CourierNewPSMT-32" transform="translate(120.019531 0)"/>
       <use xlink:href="#CourierNewPSMT-30" transform="translate(180.029297 0)"/>
      </g>
     </g>
    </g>
    <g id="xtick_3">
     <g id="line2d_5">
      <path d="M 327.272727 367.2 
L 327.272727 43.2 
" clip-path="url(#p219d71d399)" style="fill: none; stroke: #b0b0b0; stroke-opacity: 0.25; stroke-width: 0.75; stroke-linecap: square"/>
     </g>
     <g id="line2d_6">
      <g>
       <use xlink:href="#mcabf6662ca" x="327.272727" y="367.2" style="stroke: #000000; stroke-width: 0.8"/>
      </g>
     </g>
     <g id="text_3">
      <!-- 2022 -->
      <g transform="translate(303.266477 386.45625) scale(0.2 -0.2)">
       <use xlink:href="#CourierNewPSMT-32"/>
       <use xlink:href="#CourierNewPSMT-30" transform="translate(60.009766 0)"/>
       <use xlink:href="#CourierNewPSMT-32" transform="translate(120.019531 0)"/>
       <use xlink:href="#CourierNewPSMT-32" transform="translate(180.029297 0)"/>
      </g>
     </g>
    </g>
    <g id="xtick_4">
     <g id="line2d_7">
      <path d="M 405.818182 367.2 
L 405.818182 43.2 
" clip-path="url(#p219d71d399)" style="fill: none; stroke: #b0b0b0; stroke-opacity: 0.25; stroke-width: 0.75; stroke-linecap: square"/>
     </g>
     <g id="line2d_8">
      <g>
       <use xlink:href="#mcabf6662ca" x="405.818182" y="367.2" style="stroke: #000000; stroke-width: 0.8"/>
      </g>
     </g>
     <g id="text_4">
      <!-- 2024 -->
      <g transform="translate(381.811932 386.45625) scale(0.2 -0.2)">
       <defs>
        <path id="CourierNewPSMT-34" d="M 2409 1097 
L 669 1097 
L 669 1400 
L 2128 3922 
L 2675 3922 
L 2675 1359 
L 2894 1359 
Q 2991 1359 3031 1323 
Q 3072 1288 3072 1228 
Q 3072 1172 3031 1134 
Q 2991 1097 2894 1097 
L 2675 1097 
L 2675 263 
L 2894 263 
Q 2991 263 3031 227 
Q 3072 191 3072 131 
Q 3072 75 3031 37 
Q 2991 0 2894 0 
L 1919 0 
Q 1822 0 1781 37 
Q 1741 75 1741 131 
Q 1741 191 1781 227 
Q 1822 263 1919 263 
L 2409 263 
L 2409 1097 
z
M 2409 1359 
L 2409 3656 
L 2272 3656 
L 944 1359 
L 2409 1359 
z
" transform="scale(0.015625)"/>
       </defs>
       <use xlink:href="#CourierNewPSMT-32"/>
       <use xlink:href="#CourierNewPSMT-30" transform="translate(60.009766 0)"/>
       <use xlink:href="#CourierNewPSMT-32" transform="translate(120.019531 0)"/>
       <use xlink:href="#CourierNewPSMT-34" transform="translate(180.029297 0)"/>
      </g>
     </g>
    </g>
    <g id="text_5">
     <!-- Year -->
     <g transform="translate(263.99375 406.48125) scale(0.2 -0.2)">
      <defs>
       <path id="CourierNewPSMT-59" d="M 2059 1650 
L 2059 263 
L 2741 263 
Q 2834 263 2875 227 
Q 2916 191 2916 131 
Q 2916 75 2875 37 
Q 2834 0 2741 0 
L 1113 0 
Q 1019 0 978 37 
Q 938 75 938 131 
Q 938 191 977 227 
Q 1016 263 1113 263 
L 1794 263 
L 1794 1650 
L 641 3394 
L 484 3394 
Q 391 3394 350 3430 
Q 309 3466 309 3525 
Q 309 3584 350 3620 
Q 391 3656 484 3656 
L 1206 3656 
Q 1300 3656 1340 3620 
Q 1381 3584 1381 3525 
Q 1381 3466 1340 3430 
Q 1300 3394 1206 3394 
L 947 3394 
L 1928 1916 
L 2888 3394 
L 2631 3394 
Q 2534 3394 2493 3430 
Q 2453 3466 2453 3525 
Q 2453 3584 2493 3620 
Q 2534 3656 2631 3656 
L 3350 3656 
Q 3444 3656 3484 3620 
Q 3525 3584 3525 3525 
Q 3525 3466 3484 3430 
Q 3444 3394 3350 3394 
L 3194 3394 
L 2059 1650 
z
" transform="scale(0.015625)"/>
       <path id="CourierNewPSMT-65" d="M 3341 1291 
L 666 1291 
Q 734 781 1092 470 
Q 1450 159 1978 159 
Q 2272 159 2594 256 
Q 2916 353 3119 513 
Q 3178 559 3222 559 
Q 3272 559 3309 520 
Q 3347 481 3347 428 
Q 3347 375 3297 325 
Q 3147 169 2764 33 
Q 2381 -103 1978 -103 
Q 1303 -103 851 339 
Q 400 781 400 1409 
Q 400 1981 823 2390 
Q 1247 2800 1872 2800 
Q 2516 2800 2931 2379 
Q 3347 1959 3341 1291 
z
M 3075 1556 
Q 2997 1991 2664 2262 
Q 2331 2534 1872 2534 
Q 1413 2534 1081 2265 
Q 750 1997 669 1556 
L 3075 1556 
z
" transform="scale(0.015625)"/>
       <path id="CourierNewPSMT-61" d="M 2675 0 
L 2675 378 
Q 2103 -103 1453 -103 
Q 981 -103 715 136 
Q 450 375 450 722 
Q 450 1103 800 1387 
Q 1150 1672 1822 1672 
Q 2003 1672 2215 1648 
Q 2428 1625 2675 1575 
L 2675 2000 
Q 2675 2216 2475 2375 
Q 2275 2534 1875 2534 
Q 1569 2534 1016 2356 
Q 916 2325 888 2325 
Q 838 2325 802 2362 
Q 766 2400 766 2456 
Q 766 2509 797 2541 
Q 841 2588 1150 2669 
Q 1638 2800 1888 2800 
Q 2384 2800 2662 2554 
Q 2941 2309 2941 2000 
L 2941 263 
L 3291 263 
Q 3388 263 3428 227 
Q 3469 191 3469 131 
Q 3469 75 3428 37 
Q 3388 0 3291 0 
L 2675 0 
z
M 2675 1306 
Q 2491 1359 2284 1384 
Q 2078 1409 1850 1409 
Q 1278 1409 956 1163 
Q 713 978 713 722 
Q 713 484 898 321 
Q 1084 159 1441 159 
Q 1781 159 2073 295 
Q 2366 431 2675 728 
L 2675 1306 
z
" transform="scale(0.015625)"/>
       <path id="CourierNewPSMT-72" d="M 1606 2706 
L 1606 2044 
Q 2119 2506 2373 2639 
Q 2628 2772 2844 2772 
Q 3078 2772 3279 2614 
Q 3481 2456 3481 2375 
Q 3481 2316 3442 2277 
Q 3403 2238 3344 2238 
Q 3313 2238 3291 2248 
Q 3269 2259 3209 2319 
Q 3100 2428 3019 2468 
Q 2938 2509 2859 2509 
Q 2688 2509 2445 2371 
Q 2203 2234 1606 1700 
L 1606 263 
L 2769 263 
Q 2866 263 2906 227 
Q 2947 191 2947 131 
Q 2947 75 2906 37 
Q 2866 0 2769 0 
L 709 0 
Q 616 0 575 36 
Q 534 72 534 128 
Q 534 181 573 217 
Q 613 253 709 253 
L 1344 253 
L 1344 2441 
L 859 2441 
Q 766 2441 725 2478 
Q 684 2516 684 2575 
Q 684 2631 723 2668 
Q 763 2706 859 2706 
L 1606 2706 
z
" transform="scale(0.015625)"/>
      </defs>
      <use xlink:href="#CourierNewPSMT-59"/>
      <use xlink:href="#CourierNewPSMT-65" transform="translate(60.009766 0)"/>
      <use xlink:href="#CourierNewPSMT-61" transform="translate(120.019531 0)"/>
      <use xlink:href="#CourierNewPSMT-72" transform="translate(180.029297 0)"/>
     </g>
    </g>
   </g>
   <g id="matplotlib.axis_2">
    <g id="ytick_1">
     <g id="line2d_9">
      <path d="M 115.2 314.752541 
L 460.8 314.752541 
" clip-path="url(#p219d71d399)" style="fill: none; stroke: #b0b0b0; stroke-opacity: 0.25; stroke-width: 0.75; stroke-linecap: square"/>
     </g>
     <g id="line2d_10">
      <defs>
       <path id="md7c37b32ae" d="M 0 0 
L -3.5 0 
" style="stroke: #000000; stroke-width: 0.8"/>
      </defs>
      <g>
       <use xlink:href="#md7c37b32ae" x="115.2" y="314.752541" style="stroke: #000000; stroke-width: 0.8"/>
      </g>
     </g>
     <g id="text_6">
      <!-- 40 -->
      <g transform="translate(84.19375 320.880666) scale(0.2 -0.2)">
       <use xlink:href="#CourierNewPSMT-34"/>
       <use xlink:href="#CourierNewPSMT-30" transform="translate(60.009766 0)"/>
      </g>
     </g>
    </g>
    <g id="ytick_2">
     <g id="line2d_11">
      <path d="M 115.2 260.085604 
L 460.8 260.085604 
" clip-path="url(#p219d71d399)" style="fill: none; stroke: #b0b0b0; stroke-opacity: 0.25; stroke-width: 0.75; stroke-linecap: square"/>
     </g>
     <g id="line2d_12">
      <g>
       <use xlink:href="#md7c37b32ae" x="115.2" y="260.085604" style="stroke: #000000; stroke-width: 0.8"/>
      </g>
     </g>
     <g id="text_7">
      <!-- 50 -->
      <g transform="translate(84.19375 266.213729) scale(0.2 -0.2)">
       <defs>
        <path id="CourierNewPSMT-35" d="M 1197 3656 
L 1197 2372 
Q 1428 2469 1640 2517 
Q 1853 2566 2044 2566 
Q 2538 2566 2870 2219 
Q 3203 1872 3203 1306 
Q 3203 681 2828 293 
Q 2453 -94 1891 -94 
Q 1519 -94 1175 72 
Q 931 188 731 359 
Q 613 463 613 531 
Q 613 588 650 627 
Q 688 666 738 666 
Q 791 666 850 609 
Q 1322 169 1878 169 
Q 2338 169 2638 483 
Q 2938 797 2938 1319 
Q 2938 1763 2678 2033 
Q 2419 2303 2019 2303 
Q 1609 2303 1200 2088 
Q 1100 2038 1059 2038 
Q 1003 2038 968 2075 
Q 934 2113 934 2181 
L 934 3922 
L 2766 3922 
Q 2859 3922 2900 3884 
Q 2941 3847 2941 3788 
Q 2941 3731 2900 3693 
Q 2859 3656 2766 3656 
L 1197 3656 
z
" transform="scale(0.015625)"/>
       </defs>
       <use xlink:href="#CourierNewPSMT-35"/>
       <use xlink:href="#CourierNewPSMT-30" transform="translate(60.009766 0)"/>
      </g>
     </g>
    </g>
    <g id="ytick_3">
     <g id="line2d_13">
      <path d="M 115.2 205.418668 
L 460.8 205.418668 
" clip-path="url(#p219d71d399)" style="fill: none; stroke: #b0b0b0; stroke-opacity: 0.25; stroke-width: 0.75; stroke-linecap: square"/>
     </g>
     <g id="line2d_14">
      <g>
       <use xlink:href="#md7c37b32ae" x="115.2" y="205.418668" style="stroke: #000000; stroke-width: 0.8"/>
      </g>
     </g>
     <g id="text_8">
      <!-- 60 -->
      <g transform="translate(84.19375 211.546793) scale(0.2 -0.2)">
       <defs>
        <path id="CourierNewPSMT-36" d="M 1138 1659 
Q 1381 2019 1639 2191 
Q 1897 2363 2213 2363 
Q 2631 2363 2956 2014 
Q 3281 1666 3281 1153 
Q 3281 684 2984 295 
Q 2688 -94 2166 -94 
Q 1825 -94 1529 115 
Q 1234 325 1066 759 
Q 856 1300 856 1956 
Q 856 2450 1053 2875 
Q 1203 3203 1453 3451 
Q 1703 3700 2036 3858 
Q 2369 4016 2756 4016 
Q 3019 4016 3194 3909 
Q 3269 3863 3269 3784 
Q 3269 3728 3234 3692 
Q 3200 3656 3147 3656 
Q 3106 3656 3050 3688 
Q 2922 3750 2731 3750 
Q 2122 3750 1620 3226 
Q 1119 2703 1119 1981 
Q 1119 1878 1138 1659 
z
M 1197 1225 
Q 1316 656 1570 412 
Q 1825 169 2172 169 
Q 2522 169 2770 442 
Q 3019 716 3019 1153 
Q 3019 1563 2769 1831 
Q 2519 2100 2203 2100 
Q 1900 2100 1619 1841 
Q 1431 1669 1197 1225 
z
" transform="scale(0.015625)"/>
       </defs>
       <use xlink:href="#CourierNewPSMT-36"/>
       <use xlink:href="#CourierNewPSMT-30" transform="translate(60.009766 0)"/>
      </g>
     </g>
    </g>
    <g id="ytick_4">
     <g id="line2d_15">
      <path d="M 115.2 150.751731 
L 460.8 150.751731 
" clip-path="url(#p219d71d399)" style="fill: none; stroke: #b0b0b0; stroke-opacity: 0.25; stroke-width: 0.75; stroke-linecap: square"/>
     </g>
     <g id="line2d_16">
      <g>
       <use xlink:href="#md7c37b32ae" x="115.2" y="150.751731" style="stroke: #000000; stroke-width: 0.8"/>
      </g>
     </g>
     <g id="text_9">
      <!-- 70 -->
      <g transform="translate(84.19375 156.879856) scale(0.2 -0.2)">
       <defs>
        <path id="CourierNewPSMT-37" d="M 2803 3538 
L 2803 3656 
L 922 3656 
L 922 3425 
Q 922 3331 886 3290 
Q 850 3250 791 3250 
Q 734 3250 696 3290 
Q 659 3331 659 3425 
L 659 3922 
L 3069 3922 
L 3069 3503 
L 2013 128 
Q 1988 47 1953 20 
Q 1919 -6 1875 -6 
Q 1819 -6 1781 31 
Q 1744 69 1744 119 
Q 1744 150 1763 206 
L 2803 3538 
z
" transform="scale(0.015625)"/>
       </defs>
       <use xlink:href="#CourierNewPSMT-37"/>
       <use xlink:href="#CourierNewPSMT-30" transform="translate(60.009766 0)"/>
      </g>
     </g>
    </g>
    <g id="ytick_5">
     <g id="line2d_17">
      <path d="M 115.2 96.084794 
L 460.8 96.084794 
" clip-path="url(#p219d71d399)" style="fill: none; stroke: #b0b0b0; stroke-opacity: 0.25; stroke-width: 0.75; stroke-linecap: square"/>
     </g>
     <g id="line2d_18">
      <g>
       <use xlink:href="#md7c37b32ae" x="115.2" y="96.084794" style="stroke: #000000; stroke-width: 0.8"/>
      </g>
     </g>
     <g id="text_10">
      <!-- 80 -->
      <g transform="translate(84.19375 102.212919) scale(0.2 -0.2)">
       <use xlink:href="#CourierNewPSMT-38"/>
       <use xlink:href="#CourierNewPSMT-30" transform="translate(60.009766 0)"/>
      </g>
     </g>
    </g>
    <g id="text_11">
     <!-- Developers [%] -->
     <g transform="translate(76.425 289.221875) rotate(-90) scale(0.2 -0.2)">
      <defs>
       <path id="CourierNewPSMT-44" d="M 891 263 
L 891 3394 
L 669 3394 
Q 575 3394 534 3430 
Q 494 3466 494 3525 
Q 494 3584 534 3620 
Q 575 3656 669 3656 
L 2081 3656 
Q 2413 3656 2686 3518 
Q 2959 3381 3103 3206 
Q 3350 2909 3478 2578 
Q 3569 2338 3569 2009 
L 3569 1647 
Q 3569 1244 3391 866 
Q 3213 488 2797 206 
Q 2488 0 2081 0 
L 669 0 
Q 575 0 534 37 
Q 494 75 494 131 
Q 494 191 534 227 
Q 575 263 669 263 
L 891 263 
z
M 1153 263 
L 2106 263 
Q 2438 263 2727 478 
Q 3016 694 3161 995 
Q 3306 1297 3306 1591 
L 3306 2066 
Q 3306 2309 3228 2500 
Q 3116 2778 2909 3028 
Q 2797 3166 2578 3280 
Q 2359 3394 2106 3394 
L 1153 3394 
L 1153 263 
z
" transform="scale(0.015625)"/>
       <path id="CourierNewPSMT-76" d="M 2150 0 
L 1706 0 
L 628 2441 
L 359 2441 
Q 266 2441 225 2478 
Q 184 2516 184 2575 
Q 184 2631 225 2668 
Q 266 2706 359 2706 
L 1344 2706 
Q 1438 2706 1478 2668 
Q 1519 2631 1519 2572 
Q 1519 2516 1478 2478 
Q 1438 2441 1344 2441 
L 909 2441 
L 1872 263 
L 1988 263 
L 2931 2441 
L 2494 2441 
Q 2400 2441 2359 2478 
Q 2319 2516 2319 2575 
Q 2319 2631 2359 2668 
Q 2400 2706 2494 2706 
L 3481 2706 
Q 3578 2706 3617 2668 
Q 3656 2631 3656 2572 
Q 3656 2516 3617 2478 
Q 3578 2441 3481 2441 
L 3216 2441 
L 2150 0 
z
" transform="scale(0.015625)"/>
       <path id="CourierNewPSMT-6c" d="M 2053 3922 
L 2053 263 
L 3084 263 
Q 3181 263 3222 227 
Q 3263 191 3263 131 
Q 3263 75 3222 37 
Q 3181 0 3084 0 
L 759 0 
Q 666 0 625 37 
Q 584 75 584 131 
Q 584 191 625 227 
Q 666 263 759 263 
L 1791 263 
L 1791 3656 
L 1034 3656 
Q 941 3656 898 3693 
Q 856 3731 856 3791 
Q 856 3847 897 3884 
Q 938 3922 1034 3922 
L 2053 3922 
z
" transform="scale(0.015625)"/>
       <path id="CourierNewPSMT-6f" d="M 3388 1347 
Q 3388 747 2958 322 
Q 2528 -103 1922 -103 
Q 1309 -103 881 323 
Q 453 750 453 1347 
Q 453 1947 881 2373 
Q 1309 2800 1922 2800 
Q 2528 2800 2958 2375 
Q 3388 1950 3388 1347 
z
M 3122 1347 
Q 3122 1841 2770 2187 
Q 2419 2534 1919 2534 
Q 1419 2534 1067 2186 
Q 716 1838 716 1347 
Q 716 859 1067 509 
Q 1419 159 1919 159 
Q 2419 159 2770 507 
Q 3122 856 3122 1347 
z
" transform="scale(0.015625)"/>
       <path id="CourierNewPSMT-70" d="M 931 2706 
L 931 2228 
Q 1166 2513 1434 2656 
Q 1703 2800 2069 2800 
Q 2456 2800 2784 2619 
Q 3113 2438 3292 2114 
Q 3472 1791 3472 1434 
Q 3472 869 3067 467 
Q 2663 66 2072 66 
Q 1369 66 931 638 
L 931 -944 
L 1569 -944 
Q 1663 -944 1703 -980 
Q 1744 -1016 1744 -1075 
Q 1744 -1131 1703 -1168 
Q 1663 -1206 1569 -1206 
L 316 -1206 
Q 222 -1206 181 -1170 
Q 141 -1134 141 -1075 
Q 141 -1016 181 -980 
Q 222 -944 316 -944 
L 669 -944 
L 669 2441 
L 316 2441 
Q 222 2441 181 2478 
Q 141 2516 141 2575 
Q 141 2631 181 2668 
Q 222 2706 316 2706 
L 931 2706 
z
M 3206 1434 
Q 3206 1888 2876 2211 
Q 2547 2534 2072 2534 
Q 1594 2534 1262 2209 
Q 931 1884 931 1434 
Q 931 981 1262 656 
Q 1594 331 2072 331 
Q 2544 331 2875 654 
Q 3206 978 3206 1434 
z
" transform="scale(0.015625)"/>
       <path id="CourierNewPSMT-73" d="M 2788 2534 
Q 2788 2625 2825 2665 
Q 2863 2706 2919 2706 
Q 2978 2706 3015 2665 
Q 3053 2625 3053 2528 
L 3053 2078 
Q 3053 1984 3015 1943 
Q 2978 1903 2919 1903 
Q 2866 1903 2830 1937 
Q 2794 1972 2788 2050 
Q 2769 2238 2594 2359 
Q 2338 2534 1916 2534 
Q 1475 2534 1231 2356 
Q 1047 2222 1047 2056 
Q 1047 1869 1266 1744 
Q 1416 1656 1834 1609 
Q 2381 1550 2594 1475 
Q 2897 1366 3045 1172 
Q 3194 978 3194 753 
Q 3194 419 2872 158 
Q 2550 -103 1928 -103 
Q 1306 -103 909 213 
Q 909 106 896 75 
Q 884 44 851 22 
Q 819 0 778 0 
Q 722 0 684 40 
Q 647 81 647 175 
L 647 716 
Q 647 809 683 850 
Q 719 891 778 891 
Q 834 891 873 852 
Q 913 813 913 747 
Q 913 603 984 506 
Q 1094 356 1333 257 
Q 1572 159 1919 159 
Q 2431 159 2681 350 
Q 2931 541 2931 753 
Q 2931 997 2678 1144 
Q 2422 1291 1933 1341 
Q 1444 1391 1231 1472 
Q 1019 1553 900 1715 
Q 781 1878 781 2066 
Q 781 2403 1112 2601 
Q 1444 2800 1903 2800 
Q 2447 2800 2788 2534 
z
" transform="scale(0.015625)"/>
       <path id="CourierNewPSMT-20" transform="scale(0.015625)"/>
       <path id="CourierNewPSMT-5b" d="M 2053 3656 
L 2053 -547 
L 2691 -547 
Q 2784 -547 2825 -583 
Q 2866 -619 2866 -678 
Q 2866 -738 2825 -773 
Q 2784 -809 2691 -809 
L 1791 -809 
L 1791 3922 
L 2691 3922 
Q 2784 3922 2825 3884 
Q 2866 3847 2866 3788 
Q 2866 3731 2825 3693 
Q 2784 3656 2691 3656 
L 2053 3656 
z
" transform="scale(0.015625)"/>
       <path id="CourierNewPSMT-25" d="M 2319 3175 
Q 2319 2838 2083 2600 
Q 1847 2363 1519 2363 
Q 1188 2363 953 2600 
Q 719 2838 719 3175 
Q 719 3513 953 3748 
Q 1188 3984 1519 3984 
Q 1850 3984 2084 3748 
Q 2319 3513 2319 3175 
z
M 2131 3175 
Q 2131 3434 1951 3615 
Q 1772 3797 1519 3797 
Q 1266 3797 1086 3615 
Q 906 3434 906 3175 
Q 906 2916 1086 2734 
Q 1266 2553 1519 2553 
Q 1772 2553 1951 2734 
Q 2131 2916 2131 3175 
z
M 3169 2266 
L 738 1475 
Q 694 1463 672 1463 
Q 638 1463 611 1491 
Q 584 1519 584 1556 
Q 584 1588 606 1619 
Q 622 1638 678 1656 
L 3109 2447 
Q 3153 2459 3178 2459 
Q 3209 2459 3236 2431 
Q 3263 2403 3263 2366 
Q 3263 2334 3241 2303 
Q 3225 2284 3169 2266 
z
M 3128 734 
Q 3128 397 2892 161 
Q 2656 -75 2325 -75 
Q 1997 -75 1761 162 
Q 1525 400 1525 734 
Q 1525 1072 1759 1309 
Q 1994 1547 2325 1547 
Q 2656 1547 2892 1309 
Q 3128 1072 3128 734 
z
M 2938 734 
Q 2938 997 2758 1176 
Q 2578 1356 2325 1356 
Q 2072 1356 1892 1175 
Q 1713 994 1713 734 
Q 1713 478 1892 295 
Q 2072 113 2325 113 
Q 2578 113 2758 294 
Q 2938 475 2938 734 
z
" transform="scale(0.015625)"/>
       <path id="CourierNewPSMT-5d" d="M 1797 -547 
L 1797 3656 
L 1163 3656 
Q 1069 3656 1028 3693 
Q 988 3731 988 3788 
Q 988 3847 1028 3884 
Q 1069 3922 1163 3922 
L 2063 3922 
L 2063 -809 
L 1163 -809 
Q 1069 -809 1028 -773 
Q 988 -738 988 -678 
Q 988 -622 1028 -584 
Q 1069 -547 1163 -547 
L 1797 -547 
z
" transform="scale(0.015625)"/>
      </defs>
      <use xlink:href="#CourierNewPSMT-44"/>
      <use xlink:href="#CourierNewPSMT-65" transform="translate(60.009766 0)"/>
      <use xlink:href="#CourierNewPSMT-76" transform="translate(120.019531 0)"/>
      <use xlink:href="#CourierNewPSMT-65" transform="translate(180.029297 0)"/>
      <use xlink:href="#CourierNewPSMT-6c" transform="translate(240.039062 0)"/>
      <use xlink:href="#CourierNewPSMT-6f" transform="translate(300.048828 0)"/>
      <use xlink:href="#CourierNewPSMT-70" transform="translate(360.058594 0)"/>
      <use xlink:href="#CourierNewPSMT-65" transform="translate(420.068359 0)"/>
      <use xlink:href="#CourierNewPSMT-72" transform="translate(480.078125 0)"/>
      <use xlink:href="#CourierNewPSMT-73" transform="translate(540.087891 0)"/>
      <use xlink:href="#CourierNewPSMT-20" transform="translate(600.097656 0)"/>
      <use xlink:href="#CourierNewPSMT-5b" transform="translate(660.107422 0)"/>
      <use xlink:href="#CourierNewPSMT-25" transform="translate(720.117188 0)"/>
      <use xlink:href="#CourierNewPSMT-5d" transform="translate(780.126953 0)"/>
     </g>
    </g>
   </g>
   <g id="line2d_19">
    <path d="M 130.909091 133.804981 
L 170.181818 102.098158 
L 209.454545 76.951367 
L 248.727273 62.737963 
L 288 57.927273 
L 327.272727 59.293946 
L 366.545455 70.610002 
L 405.818182 84.058068 
L 445.090909 137.631666 
" clip-path="url(#p219d71d399)" style="fill: none; stroke: #ce412b; stroke-width: 1.5; stroke-linecap: square"/>
   </g>
   <g id="line2d_20">
    <path d="M 130.909091 187.378579 
L 170.181818 174.805183 
L 209.454545 162.231788 
L 248.727273 192.845272 
L 288 190.439927 
L 327.272727 180.381211 
L 366.545455 192.025268 
L 405.818182 163.325127 
L 445.090909 224.552096 
" clip-path="url(#p219d71d399)" style="fill: none; stroke: #00acd7; stroke-width: 1.5; stroke-linecap: square"/>
   </g>
   <g id="line2d_21">
    <path d="M 130.909091 305.459162 
M 209.454545 301.085807 
L 248.727273 352.472727 
L 288 317.157886 
L 327.272727 316.501883 
L 366.545455 296.767119 
L 405.818182 274.299008 
L 445.090909 287.419073 
" clip-path="url(#p219d71d399)" style="fill: none; stroke: #659bd3; stroke-width: 1.5; stroke-linecap: square"/>
   </g>
   <g id="line2d_22">
    <path d="M 130.909091 249.152217 
L 170.181818 278.125693 
L 209.454545 249.152217 
L 248.727273 296.165783 
L 288 264.240292 
L 327.272727 268.886981 
L 366.545455 261.342944 
L 405.818182 243.138854 
L 445.090909 278.672363 
" clip-path="url(#p219d71d399)" style="fill: none; stroke: #00599d; stroke-width: 1.5; stroke-linecap: square"/>
   </g>
   <g id="line2d_23">
    <path d="M 130.909091 257.352258 
L 170.181818 256.258919 
L 209.454545 241.498846 
L 248.727273 292.339097 
L 288 275.665681 
L 327.272727 283.319052 
L 366.545455 292.28443 
L 405.818182 273.205669 
L 445.090909 304.912492 
" clip-path="url(#p219d71d399)" style="fill: none; stroke: #c12f30; stroke-width: 1.5; stroke-linecap: square"/>
   </g>
   <g id="patch_3">
    <path d="M 115.2 367.2 
L 115.2 43.2 
" style="fill: none; stroke: #000000; stroke-width: 0.8; stroke-linejoin: miter; stroke-linecap: square"/>
   </g>
   <g id="patch_4">
    <path d="M 460.8 367.2 
L 460.8 43.2 
" style="fill: none; stroke: #000000; stroke-width: 0.8; stroke-linejoin: miter; stroke-linecap: square"/>
   </g>
   <g id="patch_5">
    <path d="M 115.2 367.2 
L 460.8 367.2 
" style="fill: none; stroke: #000000; stroke-width: 0.8; stroke-linejoin: miter; stroke-linecap: square"/>
   </g>
   <g id="patch_6">
    <path d="M 115.2 43.2 
L 460.8 43.2 
" style="fill: none; stroke: #000000; stroke-width: 0.8; stroke-linejoin: miter; stroke-linecap: square"/>
   </g>
   <g id="text_12">
    <!-- Most Loved Language -->
    <g transform="translate(173.970312 37.2) scale(0.2 -0.2)">
     <defs>
      <path id="CourierNewPSMT-4d" d="M 2094 1097 
L 1794 1097 
L 784 3394 
L 734 3394 
L 734 263 
L 1219 263 
Q 1313 263 1353 227 
Q 1394 191 1394 131 
Q 1394 75 1353 37 
Q 1313 0 1219 0 
L 250 0 
Q 156 0 115 37 
Q 75 75 75 131 
Q 75 191 115 227 
Q 156 263 250 263 
L 472 263 
L 472 3394 
L 306 3394 
Q 213 3394 172 3430 
Q 131 3466 131 3525 
Q 131 3584 172 3620 
Q 213 3656 306 3656 
L 950 3656 
L 1944 1394 
L 2922 3656 
L 3566 3656 
Q 3663 3656 3703 3620 
Q 3744 3584 3744 3525 
Q 3744 3466 3703 3430 
Q 3663 3394 3566 3394 
L 3403 3394 
L 3403 263 
L 3622 263 
Q 3719 263 3759 227 
Q 3800 191 3800 131 
Q 3800 75 3759 37 
Q 3719 0 3622 0 
L 2656 0 
Q 2563 0 2520 37 
Q 2478 75 2478 131 
Q 2478 191 2518 227 
Q 2559 263 2656 263 
L 3141 263 
L 3141 3394 
L 3084 3394 
L 2094 1097 
z
" transform="scale(0.015625)"/>
      <path id="CourierNewPSMT-74" d="M 1381 2706 
L 2806 2706 
Q 2900 2706 2940 2668 
Q 2981 2631 2981 2572 
Q 2981 2516 2940 2478 
Q 2900 2441 2806 2441 
L 1381 2441 
L 1381 694 
Q 1381 466 1564 312 
Q 1747 159 2100 159 
Q 2366 159 2675 239 
Q 2984 319 3156 419 
Q 3219 459 3259 459 
Q 3309 459 3346 420 
Q 3384 381 3384 328 
Q 3384 281 3344 241 
Q 3244 138 2858 17 
Q 2472 -103 2119 -103 
Q 1659 -103 1387 112 
Q 1116 328 1116 694 
L 1116 2441 
L 631 2441 
Q 538 2441 497 2478 
Q 456 2516 456 2575 
Q 456 2631 497 2668 
Q 538 2706 631 2706 
L 1116 2706 
L 1116 3481 
Q 1116 3575 1153 3615 
Q 1191 3656 1247 3656 
Q 1306 3656 1343 3615 
Q 1381 3575 1381 3481 
L 1381 2706 
z
" transform="scale(0.015625)"/>
      <path id="CourierNewPSMT-4c" d="M 1466 3394 
L 1466 263 
L 3209 263 
L 3209 1306 
Q 3209 1400 3246 1440 
Q 3284 1481 3344 1481 
Q 3400 1481 3437 1442 
Q 3475 1403 3475 1306 
L 3475 0 
L 575 0 
Q 481 0 440 37 
Q 400 75 400 131 
Q 400 191 440 227 
Q 481 263 575 263 
L 1200 263 
L 1200 3394 
L 575 3394 
Q 481 3394 440 3430 
Q 400 3466 400 3525 
Q 400 3584 440 3620 
Q 481 3656 575 3656 
L 2091 3656 
Q 2184 3656 2225 3620 
Q 2266 3584 2266 3525 
Q 2266 3466 2225 3430 
Q 2184 3394 2091 3394 
L 1466 3394 
z
" transform="scale(0.015625)"/>
      <path id="CourierNewPSMT-64" d="M 3206 3922 
L 3206 263 
L 3556 263 
Q 3653 263 3693 227 
Q 3734 191 3734 131 
Q 3734 75 3693 37 
Q 3653 0 3556 0 
L 2941 0 
L 2941 522 
Q 2484 -103 1781 -103 
Q 1425 -103 1098 86 
Q 772 275 583 625 
Q 394 975 394 1347 
Q 394 1722 583 2070 
Q 772 2419 1098 2609 
Q 1425 2800 1784 2800 
Q 2472 2800 2941 2175 
L 2941 3656 
L 2591 3656 
Q 2494 3656 2453 3693 
Q 2413 3731 2413 3791 
Q 2413 3847 2453 3884 
Q 2494 3922 2591 3922 
L 3206 3922 
z
M 2941 1347 
Q 2941 1847 2603 2190 
Q 2266 2534 1800 2534 
Q 1331 2534 993 2190 
Q 656 1847 656 1347 
Q 656 850 993 504 
Q 1331 159 1800 159 
Q 2266 159 2603 504 
Q 2941 850 2941 1347 
z
" transform="scale(0.015625)"/>
      <path id="CourierNewPSMT-6e" d="M 1072 2706 
L 1072 2309 
Q 1347 2588 1569 2694 
Q 1791 2800 2069 2800 
Q 2369 2800 2616 2672 
Q 2791 2578 2933 2361 
Q 3075 2144 3075 1916 
L 3075 263 
L 3297 263 
Q 3391 263 3431 227 
Q 3472 191 3472 131 
Q 3472 75 3431 37 
Q 3391 0 3297 0 
L 2594 0 
Q 2497 0 2456 37 
Q 2416 75 2416 131 
Q 2416 191 2456 227 
Q 2497 263 2594 263 
L 2813 263 
L 2813 1872 
Q 2813 2150 2609 2342 
Q 2406 2534 2066 2534 
Q 1806 2534 1615 2429 
Q 1425 2325 1072 1909 
L 1072 263 
L 1369 263 
Q 1463 263 1503 227 
Q 1544 191 1544 131 
Q 1544 75 1503 37 
Q 1463 0 1369 0 
L 513 0 
Q 419 0 378 37 
Q 338 75 338 131 
Q 338 191 378 227 
Q 419 263 513 263 
L 809 263 
L 809 2441 
L 588 2441 
Q 494 2441 453 2478 
Q 413 2516 413 2575 
Q 413 2631 453 2668 
Q 494 2706 588 2706 
L 1072 2706 
z
" transform="scale(0.015625)"/>
      <path id="CourierNewPSMT-67" d="M 2803 2225 
L 2803 2706 
L 3419 2706 
Q 3513 2706 3553 2668 
Q 3594 2631 3594 2572 
Q 3594 2516 3553 2478 
Q 3513 2441 3419 2441 
L 3066 2441 
L 3066 -181 
Q 3066 -444 2953 -650 
Q 2878 -788 2703 -934 
Q 2528 -1081 2384 -1143 
Q 2241 -1206 2000 -1206 
L 1256 -1206 
Q 1163 -1206 1122 -1170 
Q 1081 -1134 1081 -1075 
Q 1081 -1016 1122 -978 
Q 1163 -941 1256 -941 
L 2009 -944 
Q 2241 -944 2427 -825 
Q 2613 -706 2734 -478 
Q 2803 -347 2803 -144 
L 2803 644 
Q 2381 66 1716 66 
Q 1175 66 783 467 
Q 391 869 391 1434 
Q 391 2000 783 2400 
Q 1175 2800 1716 2800 
Q 2381 2800 2803 2225 
z
M 2803 1434 
Q 2803 1897 2486 2215 
Q 2169 2534 1728 2534 
Q 1288 2534 972 2214 
Q 656 1894 656 1434 
Q 656 972 972 651 
Q 1288 331 1728 331 
Q 2169 331 2486 651 
Q 2803 972 2803 1434 
z
" transform="scale(0.015625)"/>
      <path id="CourierNewPSMT-75" d="M 2819 0 
L 2819 384 
Q 2281 -103 1656 -103 
Q 1272 -103 1072 106 
Q 813 381 813 747 
L 813 2441 
L 459 2441 
Q 366 2441 325 2478 
Q 284 2516 284 2575 
Q 284 2631 325 2668 
Q 366 2706 459 2706 
L 1075 2706 
L 1075 747 
Q 1075 491 1237 325 
Q 1400 159 1644 159 
Q 2284 159 2819 747 
L 2819 2441 
L 2334 2441 
Q 2241 2441 2200 2478 
Q 2159 2516 2159 2575 
Q 2159 2631 2200 2668 
Q 2241 2706 2334 2706 
L 3081 2706 
L 3081 263 
L 3303 263 
Q 3397 263 3437 227 
Q 3478 191 3478 131 
Q 3478 75 3437 37 
Q 3397 0 3303 0 
L 2819 0 
z
" transform="scale(0.015625)"/>
     </defs>
     <use xlink:href="#CourierNewPSMT-4d"/>
     <use xlink:href="#CourierNewPSMT-6f" transform="translate(60.009766 0)"/>
     <use xlink:href="#CourierNewPSMT-73" transform="translate(120.019531 0)"/>
     <use xlink:href="#CourierNewPSMT-74" transform="translate(180.029297 0)"/>
     <use xlink:href="#CourierNewPSMT-20" transform="translate(240.039062 0)"/>
     <use xlink:href="#CourierNewPSMT-4c" transform="translate(300.048828 0)"/>
     <use xlink:href="#CourierNewPSMT-6f" transform="translate(360.058594 0)"/>
     <use xlink:href="#CourierNewPSMT-76" transform="translate(420.068359 0)"/>
     <use xlink:href="#CourierNewPSMT-65" transform="translate(480.078125 0)"/>
     <use xlink:href="#CourierNewPSMT-64" transform="translate(540.087891 0)"/>
     <use xlink:href="#CourierNewPSMT-20" transform="translate(600.097656 0)"/>
     <use xlink:href="#CourierNewPSMT-4c" transform="translate(660.107422 0)"/>
     <use xlink:href="#CourierNewPSMT-61" transform="translate(720.117188 0)"/>
     <use xlink:href="#CourierNewPSMT-6e" transform="translate(780.126953 0)"/>
     <use xlink:href="#CourierNewPSMT-67" transform="translate(840.136719 0)"/>
     <use xlink:href="#CourierNewPSMT-75" transform="translate(900.146484 0)"/>
     <use xlink:href="#CourierNewPSMT-61" transform="translate(960.15625 0)"/>
     <use xlink:href="#CourierNewPSMT-67" transform="translate(1020.166016 0)"/>
     <use xlink:href="#CourierNewPSMT-65" transform="translate(1080.175781 0)"/>
    </g>
   </g>
   <g id="legend_1">
    <g id="line2d_24">
     <path d="M 467.54575 147.778125 
L 487.54575 147.778125 
L 507.54575 147.778125 
" style="fill: none; stroke: #ce412b; stroke-width: 1.5; stroke-linecap: square"/>
    </g>
    <g id="text_13">
     <!-- Rust -->
     <g transform="translate(523.54575 154.778125) scale(0.2 -0.2)">
      <defs>
       <path id="CourierNewPSMT-52" d="M 1066 1631 
L 1066 263 
L 1550 263 
Q 1647 263 1687 227 
Q 1728 191 1728 131 
Q 1728 75 1687 37 
Q 1647 0 1550 0 
L 450 0 
Q 356 0 315 37 
Q 275 75 275 131 
Q 275 191 315 227 
Q 356 263 450 263 
L 803 263 
L 803 3394 
L 450 3394 
Q 356 3394 315 3430 
Q 275 3466 275 3525 
Q 275 3584 315 3620 
Q 356 3656 450 3656 
L 2038 3656 
Q 2528 3656 2864 3345 
Q 3200 3034 3200 2644 
Q 3200 2363 2992 2114 
Q 2784 1866 2297 1700 
Q 2578 1506 2778 1262 
Q 2978 1019 3419 263 
L 3619 263 
Q 3713 263 3753 227 
Q 3794 191 3794 131 
Q 3794 75 3753 37 
Q 3713 0 3619 0 
L 3269 0 
Q 2781 872 2514 1169 
Q 2247 1466 1900 1631 
L 1066 1631 
z
M 1066 1894 
L 1781 1894 
Q 2125 1894 2404 2019 
Q 2684 2144 2811 2312 
Q 2938 2481 2938 2656 
Q 2938 2919 2673 3156 
Q 2409 3394 2031 3394 
L 1066 3394 
L 1066 1894 
z
" transform="scale(0.015625)"/>
      </defs>
      <use xlink:href="#CourierNewPSMT-52"/>
      <use xlink:href="#CourierNewPSMT-75" transform="translate(60.009766 0)"/>
      <use xlink:href="#CourierNewPSMT-73" transform="translate(120.019531 0)"/>
      <use xlink:href="#CourierNewPSMT-74" transform="translate(180.029297 0)"/>
     </g>
    </g>
    <g id="line2d_25">
     <path d="M 467.54575 175.546875 
L 487.54575 175.546875 
L 507.54575 175.546875 
" style="fill: none; stroke: #00acd7; stroke-width: 1.5; stroke-linecap: square"/>
    </g>
    <g id="text_14">
     <!-- Go -->
     <g transform="translate(523.54575 182.546875) scale(0.2 -0.2)">
      <defs>
       <path id="CourierNewPSMT-47" d="M 3347 1356 
L 3347 231 
Q 3047 66 2748 -18 
Q 2450 -103 2153 -103 
Q 1731 -103 1411 22 
Q 1091 147 869 372 
Q 647 597 523 875 
Q 400 1153 400 1581 
L 400 2063 
Q 400 2494 614 2901 
Q 828 3309 1200 3525 
Q 1572 3741 2009 3741 
Q 2644 3741 3081 3394 
Q 3081 3547 3092 3578 
Q 3103 3609 3137 3632 
Q 3172 3656 3216 3656 
Q 3272 3656 3309 3615 
Q 3347 3575 3347 3481 
L 3347 2888 
Q 3347 2791 3309 2752 
Q 3272 2713 3216 2713 
Q 3163 2713 3127 2748 
Q 3091 2784 3088 2875 
Q 3069 3141 2742 3309 
Q 2416 3478 2031 3478 
Q 1669 3478 1376 3320 
Q 1084 3163 831 2719 
Q 663 2428 663 2059 
L 663 1581 
Q 663 928 1063 543 
Q 1463 159 2166 159 
Q 2403 159 2606 209 
Q 2809 259 3081 384 
L 3081 1356 
L 2178 1356 
Q 2084 1356 2043 1392 
Q 2003 1428 2003 1488 
Q 2003 1547 2043 1584 
Q 2084 1622 2178 1622 
L 3441 1619 
Q 3534 1619 3575 1583 
Q 3616 1547 3616 1488 
Q 3616 1447 3591 1412 
Q 3566 1378 3534 1367 
Q 3503 1356 3347 1356 
z
" transform="scale(0.015625)"/>
      </defs>
      <use xlink:href="#CourierNewPSMT-47"/>
      <use xlink:href="#CourierNewPSMT-6f" transform="translate(60.009766 0)"/>
     </g>
    </g>
    <g id="line2d_26">
     <path d="M 467.54575 203.315625 
L 487.54575 203.315625 
L 507.54575 203.315625 
" style="fill: none; stroke: #659bd3; stroke-width: 1.5; stroke-linecap: square"/>
    </g>
    <g id="text_15">
     <!-- C -->
     <g transform="translate(523.54575 210.315625) scale(0.2 -0.2)">
      <defs>
       <path id="CourierNewPSMT-43" d="M 3075 3297 
L 3075 3481 
Q 3075 3575 3111 3615 
Q 3147 3656 3206 3656 
Q 3266 3656 3302 3615 
Q 3338 3575 3338 3481 
L 3338 2753 
Q 3338 2656 3302 2615 
Q 3266 2575 3206 2575 
Q 3153 2575 3117 2612 
Q 3081 2650 3075 2734 
Q 3059 2997 2791 3200 
Q 2428 3478 1966 3478 
Q 1663 3478 1394 3344 
Q 1194 3247 1075 3106 
Q 869 2863 747 2566 
Q 659 2347 659 2072 
L 659 1613 
Q 659 1025 1084 592 
Q 1509 159 2072 159 
Q 2409 159 2676 306 
Q 2944 453 3194 750 
Q 3247 816 3313 816 
Q 3369 816 3403 781 
Q 3438 747 3438 694 
Q 3438 622 3303 475 
Q 3047 188 2726 42 
Q 2406 -103 2078 -103 
Q 1794 -103 1500 6 
Q 1275 91 1128 203 
Q 981 316 767 583 
Q 553 850 475 1076 
Q 397 1303 397 1575 
L 397 2109 
Q 397 2497 605 2901 
Q 813 3306 1173 3523 
Q 1534 3741 1956 3741 
Q 2606 3741 3075 3297 
z
" transform="scale(0.015625)"/>
      </defs>
      <use xlink:href="#CourierNewPSMT-43"/>
     </g>
    </g>
    <g id="line2d_27">
     <path d="M 467.54575 231.084375 
L 487.54575 231.084375 
L 507.54575 231.084375 
" style="fill: none; stroke: #00599d; stroke-width: 1.5; stroke-linecap: square"/>
    </g>
    <g id="text_16">
     <!-- C++ -->
     <g transform="translate(523.54575 238.084375) scale(0.2 -0.2)">
      <defs>
       <path id="CourierNewPSMT-2b" d="M 2053 1697 
L 2053 384 
Q 2053 291 2015 250 
Q 1978 209 1919 209 
Q 1863 209 1825 250 
Q 1788 291 1788 384 
L 1788 1697 
L 625 1697 
Q 531 1697 490 1733 
Q 450 1769 450 1828 
Q 450 1888 490 1923 
Q 531 1959 625 1959 
L 1788 1959 
L 1788 3266 
Q 1788 3359 1825 3400 
Q 1863 3441 1922 3441 
Q 1978 3441 2015 3400 
Q 2053 3359 2053 3266 
L 2053 1959 
L 3216 1959 
Q 3309 1959 3350 1923 
Q 3391 1888 3391 1828 
Q 3391 1769 3350 1733 
Q 3309 1697 3216 1697 
L 2053 1697 
z
" transform="scale(0.015625)"/>
      </defs>
      <use xlink:href="#CourierNewPSMT-43"/>
      <use xlink:href="#CourierNewPSMT-2b" transform="translate(60.009766 0)"/>
      <use xlink:href="#CourierNewPSMT-2b" transform="translate(120.019531 0)"/>
     </g>
    </g>
    <g id="line2d_28">
     <path d="M 467.54575 258.853125 
L 487.54575 258.853125 
L 507.54575 258.853125 
" style="fill: none; stroke: #c12f30; stroke-width: 1.5; stroke-linecap: square"/>
    </g>
    <g id="text_17">
     <!-- Java -->
     <g transform="translate(523.54575 265.853125) scale(0.2 -0.2)">
      <defs>
       <path id="CourierNewPSMT-4a" d="M 2947 3394 
L 2947 1075 
Q 2947 597 2590 247 
Q 2234 -103 1741 -103 
Q 1444 -103 1158 33 
Q 872 169 534 478 
L 534 1447 
Q 534 1541 571 1581 
Q 609 1622 666 1622 
Q 725 1622 762 1581 
Q 800 1541 800 1447 
L 797 603 
Q 1038 381 1273 270 
Q 1509 159 1741 159 
Q 1997 159 2225 284 
Q 2397 378 2539 600 
Q 2681 822 2681 1075 
L 2681 3394 
L 1653 3394 
Q 1556 3394 1515 3430 
Q 1475 3466 1475 3525 
Q 1475 3584 1515 3620 
Q 1556 3656 1653 3656 
L 3572 3656 
Q 3666 3656 3706 3620 
Q 3747 3584 3747 3525 
Q 3747 3466 3706 3430 
Q 3666 3394 3572 3394 
L 2947 3394 
z
" transform="scale(0.015625)"/>
      </defs>
      <use xlink:href="#CourierNewPSMT-4a"/>
      <use xlink:href="#CourierNewPSMT-61" transform="translate(60.009766 0)"/>
      <use xlink:href="#CourierNewPSMT-76" transform="translate(120.019531 0)"/>
      <use xlink:href="#CourierNewPSMT-61" transform="translate(180.029297 0)"/>
     </g>
    </g>
   </g>
  </g>
 </g>
 <defs>
  <clipPath id="p219d71d399">
   <rect x="115.2" y="43.2" width="345.6" height="324"/>
  </clipPath>
 </defs>
</svg>
