<?xml version="1.0" encoding="utf-8" standalone="no"?>
<!DOCTYPE svg PUBLIC "-//W3C//DTD SVG 1.1//EN"
  "http://www.w3.org/Graphics/SVG/1.1/DTD/svg11.dtd">
<svg xmlns:xlink="http://www.w3.org/1999/xlink" width="576pt" height="432pt" viewBox="0 0 576 432" xmlns="http://www.w3.org/2000/svg" version="1.1">
 <metadata>
  <rdf:RDF xmlns:dc="http://purl.org/dc/elements/1.1/" xmlns:cc="http://creativecommons.org/ns#" xmlns:rdf="http://www.w3.org/1999/02/22-rdf-syntax-ns#">
   <cc:Work>
    <dc:type rdf:resource="http://purl.org/dc/dcmitype/StillImage"/>
    <dc:date>2025-08-26T22:27:10.949643</dc:date>
    <dc:format>image/svg+xml</dc:format>
    <dc:creator>
     <cc:Agent>
      <dc:title>Matplotlib v3.10.3, https://matplotlib.org/</dc:title>
     </cc:Agent>
    </dc:creator>
   </cc:Work>
  </rdf:RDF>
 </metadata>
 <defs>
  <style type="text/css">*{stroke-linejoin: round; stroke-linecap: butt}</style>
 </defs>
 <g id="figure_1">
  <g id="patch_1">
   <path d="M 0 432 
L 576 432 
L 576 0 
L 0 0 
z
" style="fill: #ffffff"/>
  </g>
  <g id="axes_1">
   <g id="patch_2">
    <path d="M 115.2 367.2 
L 460.8 367.2 
L 460.8 43.2 
L 115.2 43.2 
z
" style="fill: #ffffff"/>
   </g>
   <g id="matplotlib.axis_1">
    <g id="xtick_1">
     <g id="line2d_1">
      <path d="M 169.309091 367.2 
L 169.309091 43.2 
" clip-path="url(#pf588a1da58)" style="fill: none; stroke: #b0b0b0; stroke-opacity: 0.25; stroke-width: 0.75; stroke-linecap: square"/>
     </g>
     <g id="line2d_2">
      <defs>
       <path id="m9b7c8832ae" d="M 0 0 
L 0 3.5 
" style="stroke: #000000; stroke-width: 0.8"/>
      </defs>
      <g>
       <use xlink:href="#m9b7c8832ae" x="169.309091" y="367.2" style="stroke: #000000; stroke-width: 0.8"/>
      </g>
     </g>
     <g id="text_1">
      <!-- 2019 -->
      <g transform="translate(155.334893 416.816442) rotate(-45) scale(0.2 -0.2)">
       <defs>
        <path id="CourierNewPSMT-32" d="M 791 263 
L 2806 263 
L 2806 366 
Q 2806 459 2843 500 
Q 2881 541 2941 541 
Q 2997 541 3034 500 
Q 3072 459 3072 366 
L 3072 0 
L 534 0 
L 534 388 
Q 1334 1106 2091 1850 
Q 2444 2197 2575 2359 
Q 2706 2522 2754 2645 
Q 2803 2769 2803 2894 
Q 2803 3231 2531 3490 
Q 2259 3750 1875 3750 
Q 1531 3750 1265 3553 
Q 1000 3356 922 3066 
Q 903 2991 875 2969 
Q 838 2938 788 2938 
Q 734 2938 698 2973 
Q 663 3009 663 3059 
Q 663 3209 827 3465 
Q 991 3722 1280 3869 
Q 1569 4016 1872 4016 
Q 2363 4016 2716 3675 
Q 3069 3334 3069 2903 
Q 3069 2722 3009 2570 
Q 2950 2419 2808 2239 
Q 2666 2059 2297 1697 
Q 1372 784 791 281 
L 791 263 
z
" transform="scale(0.015625)"/>
        <path id="CourierNewPSMT-30" d="M 3125 2284 
L 3125 1634 
Q 3125 788 2722 294 
Q 2406 -94 1925 -94 
Q 1694 -94 1489 -1 
Q 1284 91 1141 256 
Q 1050 359 942 587 
Q 834 816 788 1006 
Q 716 1275 716 1634 
L 716 2284 
Q 716 3134 1119 3628 
Q 1434 4016 1916 4016 
Q 2150 4016 2353 3923 
Q 2556 3831 2700 3666 
Q 2794 3559 2900 3331 
Q 3006 3103 3056 2916 
Q 3125 2647 3125 2284 
z
M 2863 2250 
Q 2863 2622 2758 2942 
Q 2653 3263 2522 3453 
Q 2444 3563 2319 3641 
Q 2141 3750 1919 3750 
Q 1478 3750 1228 3300 
Q 978 2850 978 2250 
L 978 1672 
Q 978 1300 1083 978 
Q 1188 656 1322 466 
Q 1397 359 1522 281 
Q 1700 169 1925 169 
Q 2363 169 2613 620 
Q 2863 1072 2863 1672 
L 2863 2250 
z
" transform="scale(0.015625)"/>
        <path id="CourierNewPSMT-31" d="M 2050 3975 
L 2050 263 
L 2950 263 
Q 3044 263 3084 227 
Q 3125 191 3125 131 
Q 3125 75 3084 37 
Q 3044 0 2950 0 
L 888 0 
Q 794 0 753 37 
Q 713 75 713 131 
Q 713 191 753 227 
Q 794 263 888 263 
L 1788 263 
L 1788 3613 
L 931 3344 
Q 869 3325 841 3325 
Q 794 3325 755 3364 
Q 716 3403 716 3456 
Q 716 3503 747 3544 
Q 772 3569 850 3597 
L 2050 3975 
z
" transform="scale(0.015625)"/>
        <path id="CourierNewPSMT-39" d="M 2997 2219 
Q 2794 1859 2514 1678 
Q 2234 1497 1941 1497 
Q 1669 1497 1414 1653 
Q 1159 1809 1009 2111 
Q 859 2413 859 2744 
Q 859 3225 1157 3620 
Q 1456 4016 1956 4016 
Q 2313 4016 2606 3794 
Q 2900 3572 3063 3150 
Q 3272 2609 3272 1894 
Q 3272 1338 3094 969 
Q 2975 719 2745 484 
Q 2516 250 2228 103 
Q 1834 -94 1409 -94 
Q 1128 -94 950 13 
Q 869 63 869 138 
Q 869 191 906 227 
Q 944 263 997 263 
Q 1034 263 1106 228 
Q 1228 169 1388 169 
Q 2053 169 2531 648 
Q 3009 1128 3009 1850 
Q 3009 1981 2997 2219 
z
M 2947 2656 
Q 2781 3291 2536 3520 
Q 2291 3750 1963 3750 
Q 1628 3750 1375 3469 
Q 1122 3188 1122 2747 
Q 1122 2319 1375 2039 
Q 1628 1759 1947 1759 
Q 2131 1759 2311 1859 
Q 2491 1959 2650 2159 
Q 2753 2294 2947 2656 
z
" transform="scale(0.015625)"/>
       </defs>
       <use xlink:href="#CourierNewPSMT-32"/>
       <use xlink:href="#CourierNewPSMT-30" transform="translate(60.009766 0)"/>
       <use xlink:href="#CourierNewPSMT-31" transform="translate(120.019531 0)"/>
       <use xlink:href="#CourierNewPSMT-39" transform="translate(180.029297 0)"/>
      </g>
     </g>
    </g>
    <g id="xtick_2">
     <g id="line2d_3">
      <path d="M 211.2 367.2 
L 211.2 43.2 
" clip-path="url(#pf588a1da58)" style="fill: none; stroke: #b0b0b0; stroke-opacity: 0.25; stroke-width: 0.75; stroke-linecap: square"/>
     </g>
     <g id="line2d_4">
      <g>
       <use xlink:href="#m9b7c8832ae" x="211.2" y="367.2" style="stroke: #000000; stroke-width: 0.8"/>
      </g>
     </g>
     <g id="text_2">
      <!-- 2020 -->
      <g transform="translate(197.225802 416.816442) rotate(-45) scale(0.2 -0.2)">
       <use xlink:href="#CourierNewPSMT-32"/>
       <use xlink:href="#CourierNewPSMT-30" transform="translate(60.009766 0)"/>
       <use xlink:href="#CourierNewPSMT-32" transform="translate(120.019531 0)"/>
       <use xlink:href="#CourierNewPSMT-30" transform="translate(180.029297 0)"/>
      </g>
     </g>
    </g>
    <g id="xtick_3">
     <g id="line2d_5">
      <path d="M 253.090909 367.2 
L 253.090909 43.2 
" clip-path="url(#pf588a1da58)" style="fill: none; stroke: #b0b0b0; stroke-opacity: 0.25; stroke-width: 0.75; stroke-linecap: square"/>
     </g>
     <g id="line2d_6">
      <g>
       <use xlink:href="#m9b7c8832ae" x="253.090909" y="367.2" style="stroke: #000000; stroke-width: 0.8"/>
      </g>
     </g>
     <g id="text_3">
      <!-- 2021 -->
      <g transform="translate(239.116711 416.816442) rotate(-45) scale(0.2 -0.2)">
       <use xlink:href="#CourierNewPSMT-32"/>
       <use xlink:href="#CourierNewPSMT-30" transform="translate(60.009766 0)"/>
       <use xlink:href="#CourierNewPSMT-32" transform="translate(120.019531 0)"/>
       <use xlink:href="#CourierNewPSMT-31" transform="translate(180.029297 0)"/>
      </g>
     </g>
    </g>
    <g id="xtick_4">
     <g id="line2d_7">
      <path d="M 294.981818 367.2 
L 294.981818 43.2 
" clip-path="url(#pf588a1da58)" style="fill: none; stroke: #b0b0b0; stroke-opacity: 0.25; stroke-width: 0.75; stroke-linecap: square"/>
     </g>
     <g id="line2d_8">
      <g>
       <use xlink:href="#m9b7c8832ae" x="294.981818" y="367.2" style="stroke: #000000; stroke-width: 0.8"/>
      </g>
     </g>
     <g id="text_4">
      <!-- 2022 -->
      <g transform="translate(281.00762 416.816442) rotate(-45) scale(0.2 -0.2)">
       <use xlink:href="#CourierNewPSMT-32"/>
       <use xlink:href="#CourierNewPSMT-30" transform="translate(60.009766 0)"/>
       <use xlink:href="#CourierNewPSMT-32" transform="translate(120.019531 0)"/>
       <use xlink:href="#CourierNewPSMT-32" transform="translate(180.029297 0)"/>
      </g>
     </g>
    </g>
    <g id="xtick_5">
     <g id="line2d_9">
      <path d="M 336.872727 367.2 
L 336.872727 43.2 
" clip-path="url(#pf588a1da58)" style="fill: none; stroke: #b0b0b0; stroke-opacity: 0.25; stroke-width: 0.75; stroke-linecap: square"/>
     </g>
     <g id="line2d_10">
      <g>
       <use xlink:href="#m9b7c8832ae" x="336.872727" y="367.2" style="stroke: #000000; stroke-width: 0.8"/>
      </g>
     </g>
     <g id="text_5">
      <!-- 2023 -->
      <g transform="translate(322.89853 416.816442) rotate(-45) scale(0.2 -0.2)">
       <defs>
        <path id="CourierNewPSMT-33" d="M 2459 2134 
Q 2822 1972 3012 1689 
Q 3203 1406 3203 1100 
Q 3203 628 2820 267 
Q 2438 -94 1863 -94 
Q 1525 -94 1162 50 
Q 800 194 656 344 
Q 609 394 609 450 
Q 609 500 645 537 
Q 681 575 731 575 
Q 781 575 844 528 
Q 1328 169 1869 169 
Q 2325 169 2633 455 
Q 2941 741 2941 1091 
Q 2941 1325 2789 1550 
Q 2638 1775 2353 1904 
Q 2069 2034 1778 2034 
Q 1684 2034 1643 2070 
Q 1603 2106 1603 2166 
Q 1603 2222 1642 2259 
Q 1681 2297 1759 2297 
L 1984 2294 
Q 2338 2294 2567 2509 
Q 2797 2725 2797 3009 
Q 2797 3303 2556 3528 
Q 2316 3753 1928 3753 
Q 1656 3753 1428 3659 
Q 1200 3566 1063 3403 
Q 1013 3341 986 3327 
Q 959 3313 925 3313 
Q 872 3313 834 3348 
Q 797 3384 797 3434 
Q 797 3559 1069 3750 
Q 1447 4016 1928 4016 
Q 2425 4016 2744 3717 
Q 3063 3419 3063 3006 
Q 3063 2744 2909 2509 
Q 2756 2275 2459 2134 
z
" transform="scale(0.015625)"/>
       </defs>
       <use xlink:href="#CourierNewPSMT-32"/>
       <use xlink:href="#CourierNewPSMT-30" transform="translate(60.009766 0)"/>
       <use xlink:href="#CourierNewPSMT-32" transform="translate(120.019531 0)"/>
       <use xlink:href="#CourierNewPSMT-33" transform="translate(180.029297 0)"/>
      </g>
     </g>
    </g>
    <g id="xtick_6">
     <g id="line2d_11">
      <path d="M 378.763636 367.2 
L 378.763636 43.2 
" clip-path="url(#pf588a1da58)" style="fill: none; stroke: #b0b0b0; stroke-opacity: 0.25; stroke-width: 0.75; stroke-linecap: square"/>
     </g>
     <g id="line2d_12">
      <g>
       <use xlink:href="#m9b7c8832ae" x="378.763636" y="367.2" style="stroke: #000000; stroke-width: 0.8"/>
      </g>
     </g>
     <g id="text_6">
      <!-- 2024 -->
      <g transform="translate(364.789439 416.816442) rotate(-45) scale(0.2 -0.2)">
       <defs>
        <path id="CourierNewPSMT-34" d="M 2409 1097 
L 669 1097 
L 669 1400 
L 2128 3922 
L 2675 3922 
L 2675 1359 
L 2894 1359 
Q 2991 1359 3031 1323 
Q 3072 1288 3072 1228 
Q 3072 1172 3031 1134 
Q 2991 1097 2894 1097 
L 2675 1097 
L 2675 263 
L 2894 263 
Q 2991 263 3031 227 
Q 3072 191 3072 131 
Q 3072 75 3031 37 
Q 2991 0 2894 0 
L 1919 0 
Q 1822 0 1781 37 
Q 1741 75 1741 131 
Q 1741 191 1781 227 
Q 1822 263 1919 263 
L 2409 263 
L 2409 1097 
z
M 2409 1359 
L 2409 3656 
L 2272 3656 
L 944 1359 
L 2409 1359 
z
" transform="scale(0.015625)"/>
       </defs>
       <use xlink:href="#CourierNewPSMT-32"/>
       <use xlink:href="#CourierNewPSMT-30" transform="translate(60.009766 0)"/>
       <use xlink:href="#CourierNewPSMT-32" transform="translate(120.019531 0)"/>
       <use xlink:href="#CourierNewPSMT-34" transform="translate(180.029297 0)"/>
      </g>
     </g>
    </g>
    <g id="xtick_7">
     <g id="line2d_13">
      <path d="M 420.654545 367.2 
L 420.654545 43.2 
" clip-path="url(#pf588a1da58)" style="fill: none; stroke: #b0b0b0; stroke-opacity: 0.25; stroke-width: 0.75; stroke-linecap: square"/>
     </g>
     <g id="line2d_14">
      <g>
       <use xlink:href="#m9b7c8832ae" x="420.654545" y="367.2" style="stroke: #000000; stroke-width: 0.8"/>
      </g>
     </g>
     <g id="text_7">
      <!-- 2025 -->
      <g transform="translate(406.680348 416.816442) rotate(-45) scale(0.2 -0.2)">
       <defs>
        <path id="CourierNewPSMT-35" d="M 1197 3656 
L 1197 2372 
Q 1428 2469 1640 2517 
Q 1853 2566 2044 2566 
Q 2538 2566 2870 2219 
Q 3203 1872 3203 1306 
Q 3203 681 2828 293 
Q 2453 -94 1891 -94 
Q 1519 -94 1175 72 
Q 931 188 731 359 
Q 613 463 613 531 
Q 613 588 650 627 
Q 688 666 738 666 
Q 791 666 850 609 
Q 1322 169 1878 169 
Q 2338 169 2638 483 
Q 2938 797 2938 1319 
Q 2938 1763 2678 2033 
Q 2419 2303 2019 2303 
Q 1609 2303 1200 2088 
Q 1100 2038 1059 2038 
Q 1003 2038 968 2075 
Q 934 2113 934 2181 
L 934 3922 
L 2766 3922 
Q 2859 3922 2900 3884 
Q 2941 3847 2941 3788 
Q 2941 3731 2900 3693 
Q 2859 3656 2766 3656 
L 1197 3656 
z
" transform="scale(0.015625)"/>
       </defs>
       <use xlink:href="#CourierNewPSMT-32"/>
       <use xlink:href="#CourierNewPSMT-30" transform="translate(60.009766 0)"/>
       <use xlink:href="#CourierNewPSMT-32" transform="translate(120.019531 0)"/>
       <use xlink:href="#CourierNewPSMT-35" transform="translate(180.029297 0)"/>
      </g>
     </g>
    </g>
   </g>
   <g id="matplotlib.axis_2">
    <g id="ytick_1">
     <g id="line2d_15">
      <path d="M 115.2 324.420779 
L 460.8 324.420779 
" clip-path="url(#pf588a1da58)" style="fill: none; stroke: #b0b0b0; stroke-opacity: 0.25; stroke-width: 0.75; stroke-linecap: square"/>
     </g>
     <g id="line2d_16">
      <defs>
       <path id="m09e36d4f65" d="M 0 0 
L -3.5 0 
" style="stroke: #000000; stroke-width: 0.8"/>
      </defs>
      <g>
       <use xlink:href="#m09e36d4f65" x="115.2" y="324.420779" style="stroke: #000000; stroke-width: 0.8"/>
      </g>
     </g>
     <g id="text_8">
      <!-- 10 -->
      <g transform="translate(84.19375 330.548904) scale(0.2 -0.2)">
       <use xlink:href="#CourierNewPSMT-31"/>
       <use xlink:href="#CourierNewPSMT-30" transform="translate(60.009766 0)"/>
      </g>
     </g>
    </g>
    <g id="ytick_2">
     <g id="line2d_17">
      <path d="M 115.2 277.667532 
L 460.8 277.667532 
" clip-path="url(#pf588a1da58)" style="fill: none; stroke: #b0b0b0; stroke-opacity: 0.25; stroke-width: 0.75; stroke-linecap: square"/>
     </g>
     <g id="line2d_18">
      <g>
       <use xlink:href="#m09e36d4f65" x="115.2" y="277.667532" style="stroke: #000000; stroke-width: 0.8"/>
      </g>
     </g>
     <g id="text_9">
      <!-- 20 -->
      <g transform="translate(84.19375 283.795657) scale(0.2 -0.2)">
       <use xlink:href="#CourierNewPSMT-32"/>
       <use xlink:href="#CourierNewPSMT-30" transform="translate(60.009766 0)"/>
      </g>
     </g>
    </g>
    <g id="ytick_3">
     <g id="line2d_19">
      <path d="M 115.2 230.914286 
L 460.8 230.914286 
" clip-path="url(#pf588a1da58)" style="fill: none; stroke: #b0b0b0; stroke-opacity: 0.25; stroke-width: 0.75; stroke-linecap: square"/>
     </g>
     <g id="line2d_20">
      <g>
       <use xlink:href="#m09e36d4f65" x="115.2" y="230.914286" style="stroke: #000000; stroke-width: 0.8"/>
      </g>
     </g>
     <g id="text_10">
      <!-- 30 -->
      <g transform="translate(84.19375 237.042411) scale(0.2 -0.2)">
       <use xlink:href="#CourierNewPSMT-33"/>
       <use xlink:href="#CourierNewPSMT-30" transform="translate(60.009766 0)"/>
      </g>
     </g>
    </g>
    <g id="ytick_4">
     <g id="line2d_21">
      <path d="M 115.2 184.161039 
L 460.8 184.161039 
" clip-path="url(#pf588a1da58)" style="fill: none; stroke: #b0b0b0; stroke-opacity: 0.25; stroke-width: 0.75; stroke-linecap: square"/>
     </g>
     <g id="line2d_22">
      <g>
       <use xlink:href="#m09e36d4f65" x="115.2" y="184.161039" style="stroke: #000000; stroke-width: 0.8"/>
      </g>
     </g>
     <g id="text_11">
      <!-- 40 -->
      <g transform="translate(84.19375 190.289164) scale(0.2 -0.2)">
       <use xlink:href="#CourierNewPSMT-34"/>
       <use xlink:href="#CourierNewPSMT-30" transform="translate(60.009766 0)"/>
      </g>
     </g>
    </g>
    <g id="ytick_5">
     <g id="line2d_23">
      <path d="M 115.2 137.407792 
L 460.8 137.407792 
" clip-path="url(#pf588a1da58)" style="fill: none; stroke: #b0b0b0; stroke-opacity: 0.25; stroke-width: 0.75; stroke-linecap: square"/>
     </g>
     <g id="line2d_24">
      <g>
       <use xlink:href="#m09e36d4f65" x="115.2" y="137.407792" style="stroke: #000000; stroke-width: 0.8"/>
      </g>
     </g>
     <g id="text_12">
      <!-- 50 -->
      <g transform="translate(84.19375 143.535917) scale(0.2 -0.2)">
       <use xlink:href="#CourierNewPSMT-35"/>
       <use xlink:href="#CourierNewPSMT-30" transform="translate(60.009766 0)"/>
      </g>
     </g>
    </g>
    <g id="ytick_6">
     <g id="line2d_25">
      <path d="M 115.2 90.654545 
L 460.8 90.654545 
" clip-path="url(#pf588a1da58)" style="fill: none; stroke: #b0b0b0; stroke-opacity: 0.25; stroke-width: 0.75; stroke-linecap: square"/>
     </g>
     <g id="line2d_26">
      <g>
       <use xlink:href="#m09e36d4f65" x="115.2" y="90.654545" style="stroke: #000000; stroke-width: 0.8"/>
      </g>
     </g>
     <g id="text_13">
      <!-- 60 -->
      <g transform="translate(84.19375 96.78267) scale(0.2 -0.2)">
       <defs>
        <path id="CourierNewPSMT-36" d="M 1138 1659 
Q 1381 2019 1639 2191 
Q 1897 2363 2213 2363 
Q 2631 2363 2956 2014 
Q 3281 1666 3281 1153 
Q 3281 684 2984 295 
Q 2688 -94 2166 -94 
Q 1825 -94 1529 115 
Q 1234 325 1066 759 
Q 856 1300 856 1956 
Q 856 2450 1053 2875 
Q 1203 3203 1453 3451 
Q 1703 3700 2036 3858 
Q 2369 4016 2756 4016 
Q 3019 4016 3194 3909 
Q 3269 3863 3269 3784 
Q 3269 3728 3234 3692 
Q 3200 3656 3147 3656 
Q 3106 3656 3050 3688 
Q 2922 3750 2731 3750 
Q 2122 3750 1620 3226 
Q 1119 2703 1119 1981 
Q 1119 1878 1138 1659 
z
M 1197 1225 
Q 1316 656 1570 412 
Q 1825 169 2172 169 
Q 2522 169 2770 442 
Q 3019 716 3019 1153 
Q 3019 1563 2769 1831 
Q 2519 2100 2203 2100 
Q 1900 2100 1619 1841 
Q 1431 1669 1197 1225 
z
" transform="scale(0.015625)"/>
       </defs>
       <use xlink:href="#CourierNewPSMT-36"/>
       <use xlink:href="#CourierNewPSMT-30" transform="translate(60.009766 0)"/>
      </g>
     </g>
    </g>
    <g id="ytick_7">
     <g id="line2d_27">
      <path d="M 115.2 43.901299 
L 460.8 43.901299 
" clip-path="url(#pf588a1da58)" style="fill: none; stroke: #b0b0b0; stroke-opacity: 0.25; stroke-width: 0.75; stroke-linecap: square"/>
     </g>
     <g id="line2d_28">
      <g>
       <use xlink:href="#m09e36d4f65" x="115.2" y="43.901299" style="stroke: #000000; stroke-width: 0.8"/>
      </g>
     </g>
     <g id="text_14">
      <!-- 70 -->
      <g transform="translate(84.19375 50.029424) scale(0.2 -0.2)">
       <defs>
        <path id="CourierNewPSMT-37" d="M 2803 3538 
L 2803 3656 
L 922 3656 
L 922 3425 
Q 922 3331 886 3290 
Q 850 3250 791 3250 
Q 734 3250 696 3290 
Q 659 3331 659 3425 
L 659 3922 
L 3069 3922 
L 3069 3503 
L 2013 128 
Q 1988 47 1953 20 
Q 1919 -6 1875 -6 
Q 1819 -6 1781 31 
Q 1744 69 1744 119 
Q 1744 150 1763 206 
L 2803 3538 
z
" transform="scale(0.015625)"/>
       </defs>
       <use xlink:href="#CourierNewPSMT-37"/>
       <use xlink:href="#CourierNewPSMT-30" transform="translate(60.009766 0)"/>
      </g>
     </g>
    </g>
   </g>
   <g id="line2d_29">
    <path d="M 130.909091 296.368831 
L 134.4 310.394805 
L 137.890909 315.07013 
L 141.381818 282.342857 
L 144.872727 305.719481 
L 148.363636 343.122078 
L 151.854545 333.771429 
L 155.345455 329.096104 
L 158.836364 338.446753 
L 162.327273 343.122078 
L 162.327273 329.096104 
L 165.818182 352.472727 
L 169.309091 338.446753 
L 172.8 310.394805 
L 176.290909 347.797403 
L 179.781818 324.420779 
L 183.272727 244.94026 
L 186.763636 305.719481 
L 190.254545 319.745455 
L 193.745455 301.044156 
L 197.236364 272.992208 
L 200.727273 310.394805 
L 200.727273 301.044156 
L 204.218182 329.096104 
L 207.709091 343.122078 
L 211.2 333.771429 
L 214.690909 352.472727 
L 218.181818 305.719481 
L 221.672727 333.771429 
L 225.163636 291.693506 
L 228.654545 305.719481 
L 232.145455 310.394805 
L 235.636364 329.096104 
L 239.127273 254.290909 
L 242.618182 296.368831 
L 242.618182 282.342857 
L 246.109091 282.342857 
L 249.6 291.693506 
L 253.090909 301.044156 
L 256.581818 272.992208 
L 260.072727 263.641558 
L 263.563636 235.58961 
L 267.054545 277.667532 
L 270.545455 235.58961 
L 274.036364 254.290909 
L 277.527273 258.966234 
L 281.018182 212.212987 
L 281.018182 258.966234 
L 284.509091 282.342857 
L 288 216.888312 
L 291.490909 254.290909 
L 294.981818 216.888312 
L 298.472727 263.641558 
L 301.963636 254.290909 
L 305.454545 315.07013 
L 308.945455 212.212987 
L 312.436364 212.212987 
L 315.927273 272.992208 
L 319.418182 230.914286 
L 322.909091 235.58961 
L 322.909091 212.212987 
L 326.4 104.680519 
L 329.890909 198.187013 
L 333.381818 268.316883 
L 336.872727 216.888312 
L 340.363636 212.212987 
L 343.854545 230.914286 
L 347.345455 212.212987 
L 350.836364 258.966234 
L 354.327273 291.693506 
L 357.818182 282.342857 
L 361.309091 156.109091 
L 361.309091 202.862338 
L 364.8 240.264935 
L 368.290909 184.161039 
L 371.781818 226.238961 
L 375.272727 146.758442 
L 378.763636 240.264935 
L 382.254545 174.81039 
L 385.745455 160.784416 
L 389.236364 235.58961 
L 392.727273 212.212987 
L 396.218182 151.433766 
L 399.709091 57.927273 
L 403.2 81.303896 
L 403.2 160.784416 
L 406.690909 170.135065 
L 410.181818 90.654545 
L 413.672727 198.187013 
L 417.163636 170.135065 
L 420.654545 244.94026 
L 424.145455 123.381818 
L 427.636364 62.602597 
L 431.127273 216.888312 
L 434.618182 90.654545 
L 438.109091 170.135065 
L 441.6 240.264935 
L 441.6 202.862338 
L 445.090909 207.537662 
" clip-path="url(#pf588a1da58)" style="fill: none; stroke: #ce412b; stroke-width: 1.5; stroke-linecap: square"/>
   </g>
   <g id="line2d_30">
    <path d="M 130.909091 336.97472 
L 134.4 335.590831 
L 137.890909 334.194811 
L 141.381818 332.786662 
L 144.872727 331.366382 
L 148.363636 329.933973 
L 151.854545 328.489433 
L 155.345455 327.032764 
L 158.836364 325.563964 
L 162.327273 324.083035 
L 162.327273 322.589975 
L 165.818182 321.084786 
L 169.309091 319.567466 
L 172.8 318.038017 
L 176.290909 316.496437 
L 179.781818 314.942728 
L 183.272727 313.376888 
L 186.763636 311.798919 
L 190.254545 310.208819 
L 193.745455 308.606589 
L 197.236364 306.99223 
L 200.727273 305.36574 
L 200.727273 303.727121 
L 204.218182 302.076371 
L 207.709091 300.413491 
L 211.2 298.738482 
L 214.690909 297.051342 
L 218.181818 295.352073 
L 221.672727 293.640673 
L 225.163636 291.917143 
L 228.654545 290.181484 
L 232.145455 288.433694 
L 235.636364 286.673774 
L 239.127273 284.901725 
L 242.618182 283.117545 
L 242.618182 281.321235 
L 246.109091 279.512796 
L 249.6 277.692226 
L 253.090909 275.859526 
L 256.581818 274.014696 
L 260.072727 272.157737 
L 263.563636 270.288647 
L 267.054545 268.407427 
L 270.545455 266.514078 
L 274.036364 264.608598 
L 277.527273 262.690988 
L 281.018182 260.761248 
L 281.018182 258.819378 
L 284.509091 256.865379 
L 288 254.899249 
L 291.490909 252.920989 
L 294.981818 250.930599 
L 298.472727 248.92808 
L 301.963636 246.91343 
L 305.454545 244.88665 
L 308.945455 242.84774 
L 312.436364 240.7967 
L 315.927273 238.73353 
L 319.418182 236.658231 
L 322.909091 234.570801 
L 322.909091 232.471241 
L 326.4 230.359551 
L 329.890909 228.235731 
L 333.381818 226.099781 
L 336.872727 223.951701 
L 340.363636 221.791492 
L 343.854545 219.619152 
L 347.345455 217.434682 
L 350.836364 215.238082 
L 354.327273 213.029352 
L 357.818182 210.808492 
L 361.309091 208.575502 
L 361.309091 206.330382 
L 364.8 204.073132 
L 368.290909 201.803752 
L 371.781818 199.522242 
L 375.272727 197.228602 
L 378.763636 194.922832 
L 382.254545 192.604933 
L 385.745455 190.274903 
L 389.236364 187.932743 
L 392.727273 185.578453 
L 396.218182 183.212033 
L 399.709091 180.833483 
L 403.2 178.442803 
L 403.2 176.039993 
L 406.690909 173.625053 
L 410.181818 171.197983 
L 413.672727 168.758782 
L 417.163636 166.307452 
L 420.654545 163.843992 
L 424.145455 161.368402 
L 427.636364 158.880682 
L 431.127273 156.380832 
L 434.618182 153.868852 
L 438.109091 151.344742 
L 441.6 148.808502 
L 441.6 146.260132 
L 445.090909 143.699632 
" clip-path="url(#pf588a1da58)" style="fill: none; stroke-dasharray: 5.55,2.4; stroke-dashoffset: 0; stroke: #00599d; stroke-width: 1.5"/>
   </g>
   <g id="patch_3">
    <path d="M 115.2 367.2 
L 115.2 43.2 
" style="fill: none; stroke: #000000; stroke-width: 0.8; stroke-linejoin: miter; stroke-linecap: square"/>
   </g>
   <g id="patch_4">
    <path d="M 460.8 367.2 
L 460.8 43.2 
" style="fill: none; stroke: #000000; stroke-width: 0.8; stroke-linejoin: miter; stroke-linecap: square"/>
   </g>
   <g id="patch_5">
    <path d="M 115.2 367.2 
L 460.8 367.2 
" style="fill: none; stroke: #000000; stroke-width: 0.8; stroke-linejoin: miter; stroke-linecap: square"/>
   </g>
   <g id="patch_6">
    <path d="M 115.2 43.2 
L 460.8 43.2 
" style="fill: none; stroke: #000000; stroke-width: 0.8; stroke-linejoin: miter; stroke-linecap: square"/>
   </g>
   <g id="legend_1">
    <g id="line2d_31">
     <path d="M 37.954687 19.6 
L 57.954687 19.6 
L 77.954687 19.6 
" style="fill: none; stroke: #ce412b; stroke-width: 1.5; stroke-linecap: square"/>
    </g>
    <g id="text_15">
     <!-- Monthly Releases -->
     <g transform="translate(93.954687 26.6) scale(0.2 -0.2)">
      <defs>
       <path id="CourierNewPSMT-4d" d="M 2094 1097 
L 1794 1097 
L 784 3394 
L 734 3394 
L 734 263 
L 1219 263 
Q 1313 263 1353 227 
Q 1394 191 1394 131 
Q 1394 75 1353 37 
Q 1313 0 1219 0 
L 250 0 
Q 156 0 115 37 
Q 75 75 75 131 
Q 75 191 115 227 
Q 156 263 250 263 
L 472 263 
L 472 3394 
L 306 3394 
Q 213 3394 172 3430 
Q 131 3466 131 3525 
Q 131 3584 172 3620 
Q 213 3656 306 3656 
L 950 3656 
L 1944 1394 
L 2922 3656 
L 3566 3656 
Q 3663 3656 3703 3620 
Q 3744 3584 3744 3525 
Q 3744 3466 3703 3430 
Q 3663 3394 3566 3394 
L 3403 3394 
L 3403 263 
L 3622 263 
Q 3719 263 3759 227 
Q 3800 191 3800 131 
Q 3800 75 3759 37 
Q 3719 0 3622 0 
L 2656 0 
Q 2563 0 2520 37 
Q 2478 75 2478 131 
Q 2478 191 2518 227 
Q 2559 263 2656 263 
L 3141 263 
L 3141 3394 
L 3084 3394 
L 2094 1097 
z
" transform="scale(0.015625)"/>
       <path id="CourierNewPSMT-6f" d="M 3388 1347 
Q 3388 747 2958 322 
Q 2528 -103 1922 -103 
Q 1309 -103 881 323 
Q 453 750 453 1347 
Q 453 1947 881 2373 
Q 1309 2800 1922 2800 
Q 2528 2800 2958 2375 
Q 3388 1950 3388 1347 
z
M 3122 1347 
Q 3122 1841 2770 2187 
Q 2419 2534 1919 2534 
Q 1419 2534 1067 2186 
Q 716 1838 716 1347 
Q 716 859 1067 509 
Q 1419 159 1919 159 
Q 2419 159 2770 507 
Q 3122 856 3122 1347 
z
" transform="scale(0.015625)"/>
       <path id="CourierNewPSMT-6e" d="M 1072 2706 
L 1072 2309 
Q 1347 2588 1569 2694 
Q 1791 2800 2069 2800 
Q 2369 2800 2616 2672 
Q 2791 2578 2933 2361 
Q 3075 2144 3075 1916 
L 3075 263 
L 3297 263 
Q 3391 263 3431 227 
Q 3472 191 3472 131 
Q 3472 75 3431 37 
Q 3391 0 3297 0 
L 2594 0 
Q 2497 0 2456 37 
Q 2416 75 2416 131 
Q 2416 191 2456 227 
Q 2497 263 2594 263 
L 2813 263 
L 2813 1872 
Q 2813 2150 2609 2342 
Q 2406 2534 2066 2534 
Q 1806 2534 1615 2429 
Q 1425 2325 1072 1909 
L 1072 263 
L 1369 263 
Q 1463 263 1503 227 
Q 1544 191 1544 131 
Q 1544 75 1503 37 
Q 1463 0 1369 0 
L 513 0 
Q 419 0 378 37 
Q 338 75 338 131 
Q 338 191 378 227 
Q 419 263 513 263 
L 809 263 
L 809 2441 
L 588 2441 
Q 494 2441 453 2478 
Q 413 2516 413 2575 
Q 413 2631 453 2668 
Q 494 2706 588 2706 
L 1072 2706 
z
" transform="scale(0.015625)"/>
       <path id="CourierNewPSMT-74" d="M 1381 2706 
L 2806 2706 
Q 2900 2706 2940 2668 
Q 2981 2631 2981 2572 
Q 2981 2516 2940 2478 
Q 2900 2441 2806 2441 
L 1381 2441 
L 1381 694 
Q 1381 466 1564 312 
Q 1747 159 2100 159 
Q 2366 159 2675 239 
Q 2984 319 3156 419 
Q 3219 459 3259 459 
Q 3309 459 3346 420 
Q 3384 381 3384 328 
Q 3384 281 3344 241 
Q 3244 138 2858 17 
Q 2472 -103 2119 -103 
Q 1659 -103 1387 112 
Q 1116 328 1116 694 
L 1116 2441 
L 631 2441 
Q 538 2441 497 2478 
Q 456 2516 456 2575 
Q 456 2631 497 2668 
Q 538 2706 631 2706 
L 1116 2706 
L 1116 3481 
Q 1116 3575 1153 3615 
Q 1191 3656 1247 3656 
Q 1306 3656 1343 3615 
Q 1381 3575 1381 3481 
L 1381 2706 
z
" transform="scale(0.015625)"/>
       <path id="CourierNewPSMT-68" d="M 1056 3922 
L 1056 2306 
Q 1306 2578 1536 2689 
Q 1766 2800 2050 2800 
Q 2356 2800 2570 2692 
Q 2784 2584 2928 2361 
Q 3072 2138 3072 1891 
L 3072 263 
L 3366 263 
Q 3463 263 3502 227 
Q 3541 191 3541 131 
Q 3541 75 3502 37 
Q 3463 0 3366 0 
L 2513 0 
Q 2416 0 2375 37 
Q 2334 75 2334 131 
Q 2334 191 2375 227 
Q 2416 263 2513 263 
L 2806 263 
L 2806 1872 
Q 2806 2156 2601 2347 
Q 2397 2538 2031 2538 
Q 1744 2538 1541 2397 
Q 1394 2297 1056 1925 
L 1056 263 
L 1353 263 
Q 1447 263 1487 227 
Q 1528 191 1528 131 
Q 1528 75 1487 37 
Q 1447 0 1353 0 
L 497 0 
Q 403 0 362 37 
Q 322 75 322 131 
Q 322 191 362 227 
Q 403 263 497 263 
L 794 263 
L 794 3656 
L 441 3656 
Q 347 3656 306 3693 
Q 266 3731 266 3791 
Q 266 3847 306 3884 
Q 347 3922 441 3922 
L 1056 3922 
z
" transform="scale(0.015625)"/>
       <path id="CourierNewPSMT-6c" d="M 2053 3922 
L 2053 263 
L 3084 263 
Q 3181 263 3222 227 
Q 3263 191 3263 131 
Q 3263 75 3222 37 
Q 3181 0 3084 0 
L 759 0 
Q 666 0 625 37 
Q 584 75 584 131 
Q 584 191 625 227 
Q 666 263 759 263 
L 1791 263 
L 1791 3656 
L 1034 3656 
Q 941 3656 898 3693 
Q 856 3731 856 3791 
Q 856 3847 897 3884 
Q 938 3922 1034 3922 
L 2053 3922 
z
" transform="scale(0.015625)"/>
       <path id="CourierNewPSMT-79" d="M 1938 0 
L 719 2441 
L 641 2441 
Q 547 2441 506 2478 
Q 466 2516 466 2572 
Q 466 2613 486 2645 
Q 506 2678 539 2692 
Q 572 2706 641 2706 
L 1359 2706 
Q 1453 2706 1493 2668 
Q 1534 2631 1534 2572 
Q 1534 2516 1493 2478 
Q 1453 2441 1359 2441 
L 1006 2441 
L 2078 288 
L 3134 2441 
L 2781 2441 
Q 2688 2441 2647 2478 
Q 2606 2516 2606 2575 
Q 2606 2631 2647 2668 
Q 2688 2706 2781 2706 
L 3497 2706 
Q 3594 2706 3634 2668 
Q 3675 2631 3675 2572 
Q 3675 2531 3650 2497 
Q 3625 2463 3594 2452 
Q 3563 2441 3419 2441 
L 1756 -944 
L 2166 -944 
Q 2259 -944 2300 -980 
Q 2341 -1016 2341 -1075 
Q 2341 -1131 2300 -1168 
Q 2259 -1206 2166 -1206 
L 653 -1206 
Q 559 -1206 518 -1170 
Q 478 -1134 478 -1075 
Q 478 -1016 518 -980 
Q 559 -944 653 -944 
L 1475 -944 
L 1938 0 
z
" transform="scale(0.015625)"/>
       <path id="CourierNewPSMT-20" transform="scale(0.015625)"/>
       <path id="CourierNewPSMT-52" d="M 1066 1631 
L 1066 263 
L 1550 263 
Q 1647 263 1687 227 
Q 1728 191 1728 131 
Q 1728 75 1687 37 
Q 1647 0 1550 0 
L 450 0 
Q 356 0 315 37 
Q 275 75 275 131 
Q 275 191 315 227 
Q 356 263 450 263 
L 803 263 
L 803 3394 
L 450 3394 
Q 356 3394 315 3430 
Q 275 3466 275 3525 
Q 275 3584 315 3620 
Q 356 3656 450 3656 
L 2038 3656 
Q 2528 3656 2864 3345 
Q 3200 3034 3200 2644 
Q 3200 2363 2992 2114 
Q 2784 1866 2297 1700 
Q 2578 1506 2778 1262 
Q 2978 1019 3419 263 
L 3619 263 
Q 3713 263 3753 227 
Q 3794 191 3794 131 
Q 3794 75 3753 37 
Q 3713 0 3619 0 
L 3269 0 
Q 2781 872 2514 1169 
Q 2247 1466 1900 1631 
L 1066 1631 
z
M 1066 1894 
L 1781 1894 
Q 2125 1894 2404 2019 
Q 2684 2144 2811 2312 
Q 2938 2481 2938 2656 
Q 2938 2919 2673 3156 
Q 2409 3394 2031 3394 
L 1066 3394 
L 1066 1894 
z
" transform="scale(0.015625)"/>
       <path id="CourierNewPSMT-65" d="M 3341 1291 
L 666 1291 
Q 734 781 1092 470 
Q 1450 159 1978 159 
Q 2272 159 2594 256 
Q 2916 353 3119 513 
Q 3178 559 3222 559 
Q 3272 559 3309 520 
Q 3347 481 3347 428 
Q 3347 375 3297 325 
Q 3147 169 2764 33 
Q 2381 -103 1978 -103 
Q 1303 -103 851 339 
Q 400 781 400 1409 
Q 400 1981 823 2390 
Q 1247 2800 1872 2800 
Q 2516 2800 2931 2379 
Q 3347 1959 3341 1291 
z
M 3075 1556 
Q 2997 1991 2664 2262 
Q 2331 2534 1872 2534 
Q 1413 2534 1081 2265 
Q 750 1997 669 1556 
L 3075 1556 
z
" transform="scale(0.015625)"/>
       <path id="CourierNewPSMT-61" d="M 2675 0 
L 2675 378 
Q 2103 -103 1453 -103 
Q 981 -103 715 136 
Q 450 375 450 722 
Q 450 1103 800 1387 
Q 1150 1672 1822 1672 
Q 2003 1672 2215 1648 
Q 2428 1625 2675 1575 
L 2675 2000 
Q 2675 2216 2475 2375 
Q 2275 2534 1875 2534 
Q 1569 2534 1016 2356 
Q 916 2325 888 2325 
Q 838 2325 802 2362 
Q 766 2400 766 2456 
Q 766 2509 797 2541 
Q 841 2588 1150 2669 
Q 1638 2800 1888 2800 
Q 2384 2800 2662 2554 
Q 2941 2309 2941 2000 
L 2941 263 
L 3291 263 
Q 3388 263 3428 227 
Q 3469 191 3469 131 
Q 3469 75 3428 37 
Q 3388 0 3291 0 
L 2675 0 
z
M 2675 1306 
Q 2491 1359 2284 1384 
Q 2078 1409 1850 1409 
Q 1278 1409 956 1163 
Q 713 978 713 722 
Q 713 484 898 321 
Q 1084 159 1441 159 
Q 1781 159 2073 295 
Q 2366 431 2675 728 
L 2675 1306 
z
" transform="scale(0.015625)"/>
       <path id="CourierNewPSMT-73" d="M 2788 2534 
Q 2788 2625 2825 2665 
Q 2863 2706 2919 2706 
Q 2978 2706 3015 2665 
Q 3053 2625 3053 2528 
L 3053 2078 
Q 3053 1984 3015 1943 
Q 2978 1903 2919 1903 
Q 2866 1903 2830 1937 
Q 2794 1972 2788 2050 
Q 2769 2238 2594 2359 
Q 2338 2534 1916 2534 
Q 1475 2534 1231 2356 
Q 1047 2222 1047 2056 
Q 1047 1869 1266 1744 
Q 1416 1656 1834 1609 
Q 2381 1550 2594 1475 
Q 2897 1366 3045 1172 
Q 3194 978 3194 753 
Q 3194 419 2872 158 
Q 2550 -103 1928 -103 
Q 1306 -103 909 213 
Q 909 106 896 75 
Q 884 44 851 22 
Q 819 0 778 0 
Q 722 0 684 40 
Q 647 81 647 175 
L 647 716 
Q 647 809 683 850 
Q 719 891 778 891 
Q 834 891 873 852 
Q 913 813 913 747 
Q 913 603 984 506 
Q 1094 356 1333 257 
Q 1572 159 1919 159 
Q 2431 159 2681 350 
Q 2931 541 2931 753 
Q 2931 997 2678 1144 
Q 2422 1291 1933 1341 
Q 1444 1391 1231 1472 
Q 1019 1553 900 1715 
Q 781 1878 781 2066 
Q 781 2403 1112 2601 
Q 1444 2800 1903 2800 
Q 2447 2800 2788 2534 
z
" transform="scale(0.015625)"/>
      </defs>
      <use xlink:href="#CourierNewPSMT-4d"/>
      <use xlink:href="#CourierNewPSMT-6f" transform="translate(60.009766 0)"/>
      <use xlink:href="#CourierNewPSMT-6e" transform="translate(120.019531 0)"/>
      <use xlink:href="#CourierNewPSMT-74" transform="translate(180.029297 0)"/>
      <use xlink:href="#CourierNewPSMT-68" transform="translate(240.039062 0)"/>
      <use xlink:href="#CourierNewPSMT-6c" transform="translate(300.048828 0)"/>
      <use xlink:href="#CourierNewPSMT-79" transform="translate(360.058594 0)"/>
      <use xlink:href="#CourierNewPSMT-20" transform="translate(420.068359 0)"/>
      <use xlink:href="#CourierNewPSMT-52" transform="translate(480.078125 0)"/>
      <use xlink:href="#CourierNewPSMT-65" transform="translate(540.087891 0)"/>
      <use xlink:href="#CourierNewPSMT-6c" transform="translate(600.097656 0)"/>
      <use xlink:href="#CourierNewPSMT-65" transform="translate(660.107422 0)"/>
      <use xlink:href="#CourierNewPSMT-61" transform="translate(720.117188 0)"/>
      <use xlink:href="#CourierNewPSMT-73" transform="translate(780.126953 0)"/>
      <use xlink:href="#CourierNewPSMT-65" transform="translate(840.136719 0)"/>
      <use xlink:href="#CourierNewPSMT-73" transform="translate(900.146484 0)"/>
     </g>
    </g>
    <g id="line2d_32">
     <path d="M 326.004687 19.6 
L 346.004687 19.6 
L 366.004687 19.6 
" style="fill: none; stroke-dasharray: 5.55,2.4; stroke-dashoffset: 0; stroke: #00599d; stroke-width: 1.5"/>
    </g>
    <g id="text_16">
     <!-- Quadratic Fit -->
     <g transform="translate(382.004687 26.6) scale(0.2 -0.2)">
      <defs>
       <path id="CourierNewPSMT-51" d="M 1956 -103 
L 1606 -366 
Q 1866 -313 2034 -313 
Q 2309 -313 2575 -413 
Q 2763 -484 2866 -484 
Q 3047 -484 3269 -338 
Q 3356 -281 3394 -281 
Q 3450 -281 3486 -317 
Q 3522 -353 3522 -413 
Q 3522 -459 3491 -494 
Q 3425 -569 3194 -669 
Q 3019 -747 2850 -747 
Q 2719 -747 2487 -662 
Q 2256 -578 2041 -578 
Q 1888 -578 1663 -616 
Q 1347 -669 1156 -722 
Q 1094 -738 1066 -738 
Q 1013 -738 975 -700 
Q 938 -663 938 -600 
Q 938 -538 1009 -488 
L 1594 -66 
Q 1072 63 698 578 
Q 325 1094 325 1819 
Q 325 2666 808 3203 
Q 1291 3741 1925 3741 
Q 2559 3741 3042 3203 
Q 3525 2666 3525 1819 
Q 3525 984 3050 445 
Q 2575 -94 1956 -103 
z
M 3259 1819 
Q 3259 2459 2887 2968 
Q 2516 3478 1925 3478 
Q 1372 3478 980 2992 
Q 588 2506 588 1819 
Q 588 1088 998 623 
Q 1409 159 1925 159 
Q 2516 159 2887 667 
Q 3259 1175 3259 1819 
z
" transform="scale(0.015625)"/>
       <path id="CourierNewPSMT-75" d="M 2819 0 
L 2819 384 
Q 2281 -103 1656 -103 
Q 1272 -103 1072 106 
Q 813 381 813 747 
L 813 2441 
L 459 2441 
Q 366 2441 325 2478 
Q 284 2516 284 2575 
Q 284 2631 325 2668 
Q 366 2706 459 2706 
L 1075 2706 
L 1075 747 
Q 1075 491 1237 325 
Q 1400 159 1644 159 
Q 2284 159 2819 747 
L 2819 2441 
L 2334 2441 
Q 2241 2441 2200 2478 
Q 2159 2516 2159 2575 
Q 2159 2631 2200 2668 
Q 2241 2706 2334 2706 
L 3081 2706 
L 3081 263 
L 3303 263 
Q 3397 263 3437 227 
Q 3478 191 3478 131 
Q 3478 75 3437 37 
Q 3397 0 3303 0 
L 2819 0 
z
" transform="scale(0.015625)"/>
       <path id="CourierNewPSMT-64" d="M 3206 3922 
L 3206 263 
L 3556 263 
Q 3653 263 3693 227 
Q 3734 191 3734 131 
Q 3734 75 3693 37 
Q 3653 0 3556 0 
L 2941 0 
L 2941 522 
Q 2484 -103 1781 -103 
Q 1425 -103 1098 86 
Q 772 275 583 625 
Q 394 975 394 1347 
Q 394 1722 583 2070 
Q 772 2419 1098 2609 
Q 1425 2800 1784 2800 
Q 2472 2800 2941 2175 
L 2941 3656 
L 2591 3656 
Q 2494 3656 2453 3693 
Q 2413 3731 2413 3791 
Q 2413 3847 2453 3884 
Q 2494 3922 2591 3922 
L 3206 3922 
z
M 2941 1347 
Q 2941 1847 2603 2190 
Q 2266 2534 1800 2534 
Q 1331 2534 993 2190 
Q 656 1847 656 1347 
Q 656 850 993 504 
Q 1331 159 1800 159 
Q 2266 159 2603 504 
Q 2941 850 2941 1347 
z
" transform="scale(0.015625)"/>
       <path id="CourierNewPSMT-72" d="M 1606 2706 
L 1606 2044 
Q 2119 2506 2373 2639 
Q 2628 2772 2844 2772 
Q 3078 2772 3279 2614 
Q 3481 2456 3481 2375 
Q 3481 2316 3442 2277 
Q 3403 2238 3344 2238 
Q 3313 2238 3291 2248 
Q 3269 2259 3209 2319 
Q 3100 2428 3019 2468 
Q 2938 2509 2859 2509 
Q 2688 2509 2445 2371 
Q 2203 2234 1606 1700 
L 1606 263 
L 2769 263 
Q 2866 263 2906 227 
Q 2947 191 2947 131 
Q 2947 75 2906 37 
Q 2866 0 2769 0 
L 709 0 
Q 616 0 575 36 
Q 534 72 534 128 
Q 534 181 573 217 
Q 613 253 709 253 
L 1344 253 
L 1344 2441 
L 859 2441 
Q 766 2441 725 2478 
Q 684 2516 684 2575 
Q 684 2631 723 2668 
Q 763 2706 859 2706 
L 1606 2706 
z
" transform="scale(0.015625)"/>
       <path id="CourierNewPSMT-69" d="M 2050 4053 
L 2050 3375 
L 1663 3375 
L 1663 4053 
L 2050 4053 
z
M 2059 2706 
L 2059 263 
L 3091 263 
Q 3188 263 3228 227 
Q 3269 191 3269 131 
Q 3269 75 3228 37 
Q 3188 0 3091 0 
L 766 0 
Q 672 0 631 37 
Q 591 75 591 131 
Q 591 191 631 227 
Q 672 263 766 263 
L 1797 263 
L 1797 2441 
L 1031 2441 
Q 938 2441 895 2478 
Q 853 2516 853 2572 
Q 853 2631 893 2668 
Q 934 2706 1031 2706 
L 2059 2706 
z
" transform="scale(0.015625)"/>
       <path id="CourierNewPSMT-63" d="M 3016 2441 
L 3016 2528 
Q 3016 2625 3053 2665 
Q 3091 2706 3147 2706 
Q 3206 2706 3243 2665 
Q 3281 2625 3281 2528 
L 3281 1934 
Q 3278 1838 3242 1797 
Q 3206 1756 3147 1756 
Q 3094 1756 3058 1792 
Q 3022 1828 3016 1913 
Q 2997 2134 2723 2334 
Q 2450 2534 1988 2534 
Q 1403 2534 1100 2168 
Q 797 1803 797 1331 
Q 797 822 1131 490 
Q 1466 159 1997 159 
Q 2303 159 2620 271 
Q 2938 384 3194 634 
Q 3259 697 3309 697 
Q 3363 697 3398 661 
Q 3434 625 3434 572 
Q 3434 438 3119 231 
Q 2609 -103 1984 -103 
Q 1350 -103 942 301 
Q 534 706 534 1328 
Q 534 1963 951 2381 
Q 1369 2800 2003 2800 
Q 2606 2800 3016 2441 
z
" transform="scale(0.015625)"/>
       <path id="CourierNewPSMT-46" d="M 1288 1766 
L 1288 263 
L 2188 263 
Q 2281 263 2322 227 
Q 2363 191 2363 131 
Q 2363 75 2322 37 
Q 2281 0 2188 0 
L 672 0 
Q 578 0 537 37 
Q 497 75 497 131 
Q 497 191 537 227 
Q 578 263 672 263 
L 1025 263 
L 1025 3394 
L 672 3394 
Q 578 3394 537 3430 
Q 497 3466 497 3525 
Q 497 3584 544 3625 
Q 578 3656 672 3656 
L 3563 3656 
L 3563 2753 
Q 3563 2659 3525 2618 
Q 3488 2578 3431 2578 
Q 3372 2578 3334 2618 
Q 3297 2659 3297 2753 
L 3297 3394 
L 1288 3394 
L 1288 2028 
L 2228 2028 
L 2228 2325 
Q 2228 2419 2265 2459 
Q 2303 2500 2363 2500 
Q 2419 2500 2456 2459 
Q 2494 2419 2494 2325 
L 2494 1469 
Q 2494 1375 2456 1334 
Q 2419 1294 2363 1294 
Q 2303 1294 2265 1334 
Q 2228 1375 2228 1469 
L 2228 1766 
L 1288 1766 
z
" transform="scale(0.015625)"/>
      </defs>
      <use xlink:href="#CourierNewPSMT-51"/>
      <use xlink:href="#CourierNewPSMT-75" transform="translate(60.009766 0)"/>
      <use xlink:href="#CourierNewPSMT-61" transform="translate(120.019531 0)"/>
      <use xlink:href="#CourierNewPSMT-64" transform="translate(180.029297 0)"/>
      <use xlink:href="#CourierNewPSMT-72" transform="translate(240.039062 0)"/>
      <use xlink:href="#CourierNewPSMT-61" transform="translate(300.048828 0)"/>
      <use xlink:href="#CourierNewPSMT-74" transform="translate(360.058594 0)"/>
      <use xlink:href="#CourierNewPSMT-69" transform="translate(420.068359 0)"/>
      <use xlink:href="#CourierNewPSMT-63" transform="translate(480.078125 0)"/>
      <use xlink:href="#CourierNewPSMT-20" transform="translate(540.087891 0)"/>
      <use xlink:href="#CourierNewPSMT-46" transform="translate(600.097656 0)"/>
      <use xlink:href="#CourierNewPSMT-69" transform="translate(660.107422 0)"/>
      <use xlink:href="#CourierNewPSMT-74" transform="translate(720.117188 0)"/>
     </g>
    </g>
   </g>
  </g>
 </g>
 <defs>
  <clipPath id="pf588a1da58">
   <rect x="115.2" y="43.2" width="345.6" height="324"/>
  </clipPath>
 </defs>
</svg>
