<?xml version="1.0" encoding="utf-8" standalone="no"?>
<!DOCTYPE svg PUBLIC "-//W3C//DTD SVG 1.1//EN"
  "http://www.w3.org/Graphics/SVG/1.1/DTD/svg11.dtd">
<svg xmlns:xlink="http://www.w3.org/1999/xlink" width="576pt" height="432pt" viewBox="0 0 576 432" xmlns="http://www.w3.org/2000/svg" version="1.1">
 <metadata>
  <rdf:RDF xmlns:dc="http://purl.org/dc/elements/1.1/" xmlns:cc="http://creativecommons.org/ns#" xmlns:rdf="http://www.w3.org/1999/02/22-rdf-syntax-ns#">
   <cc:Work>
    <dc:type rdf:resource="http://purl.org/dc/dcmitype/StillImage"/>
    <dc:date>2025-08-22T19:41:56.336568</dc:date>
    <dc:format>image/svg+xml</dc:format>
    <dc:creator>
     <cc:Agent>
      <dc:title>Matplotlib v3.10.3, https://matplotlib.org/</dc:title>
     </cc:Agent>
    </dc:creator>
   </cc:Work>
  </rdf:RDF>
 </metadata>
 <defs>
  <style type="text/css">*{stroke-linejoin: round; stroke-linecap: butt}</style>
 </defs>
 <g id="figure_1">
  <g id="patch_1">
   <path d="M 0 432 
L 576 432 
L 576 0 
L 0 0 
z
" style="fill: #ffffff"/>
  </g>
  <g id="axes_1">
   <g id="patch_2">
    <path d="M 115.2 367.2 
L 460.8 367.2 
L 460.8 43.2 
L 115.2 43.2 
z
" style="fill: #ffffff"/>
   </g>
   <g id="matplotlib.axis_1">
    <g id="xtick_1">
     <g id="line2d_1">
      <path d="M 115.2 367.2 
L 115.2 43.2 
" clip-path="url(#p89355e77d7)" style="fill: none; stroke: #b0b0b0; stroke-opacity: 0.25; stroke-width: 0.75; stroke-linecap: square"/>
     </g>
     <g id="line2d_2">
      <defs>
       <path id="m1748aad032" d="M 0 0 
L 0 3.5 
" style="stroke: #000000; stroke-width: 0.8"/>
      </defs>
      <g>
       <use xlink:href="#m1748aad032" x="115.2" y="367.2" style="stroke: #000000; stroke-width: 0.8"/>
      </g>
     </g>
     <g id="text_1">
      <!-- 0 -->
      <g transform="translate(109.198437 386.45625) scale(0.2 -0.2)">
       <defs>
        <path id="CourierNewPSMT-30" d="M 3125 2284 
L 3125 1634 
Q 3125 788 2722 294 
Q 2406 -94 1925 -94 
Q 1694 -94 1489 -1 
Q 1284 91 1141 256 
Q 1050 359 942 587 
Q 834 816 788 1006 
Q 716 1275 716 1634 
L 716 2284 
Q 716 3134 1119 3628 
Q 1434 4016 1916 4016 
Q 2150 4016 2353 3923 
Q 2556 3831 2700 3666 
Q 2794 3559 2900 3331 
Q 3006 3103 3056 2916 
Q 3125 2647 3125 2284 
z
M 2863 2250 
Q 2863 2622 2758 2942 
Q 2653 3263 2522 3453 
Q 2444 3563 2319 3641 
Q 2141 3750 1919 3750 
Q 1478 3750 1228 3300 
Q 978 2850 978 2250 
L 978 1672 
Q 978 1300 1083 978 
Q 1188 656 1322 466 
Q 1397 359 1522 281 
Q 1700 169 1925 169 
Q 2363 169 2613 620 
Q 2863 1072 2863 1672 
L 2863 2250 
z
" transform="scale(0.015625)"/>
       </defs>
       <use xlink:href="#CourierNewPSMT-30"/>
      </g>
     </g>
    </g>
    <g id="xtick_2">
     <g id="line2d_3">
      <path d="M 252.342857 367.2 
L 252.342857 43.2 
" clip-path="url(#p89355e77d7)" style="fill: none; stroke: #b0b0b0; stroke-opacity: 0.25; stroke-width: 0.75; stroke-linecap: square"/>
     </g>
     <g id="line2d_4">
      <g>
       <use xlink:href="#m1748aad032" x="252.342857" y="367.2" style="stroke: #000000; stroke-width: 0.8"/>
      </g>
     </g>
     <g id="text_2">
      <!-- 20 -->
      <g transform="translate(240.339732 386.45625) scale(0.2 -0.2)">
       <defs>
        <path id="CourierNewPSMT-32" d="M 791 263 
L 2806 263 
L 2806 366 
Q 2806 459 2843 500 
Q 2881 541 2941 541 
Q 2997 541 3034 500 
Q 3072 459 3072 366 
L 3072 0 
L 534 0 
L 534 388 
Q 1334 1106 2091 1850 
Q 2444 2197 2575 2359 
Q 2706 2522 2754 2645 
Q 2803 2769 2803 2894 
Q 2803 3231 2531 3490 
Q 2259 3750 1875 3750 
Q 1531 3750 1265 3553 
Q 1000 3356 922 3066 
Q 903 2991 875 2969 
Q 838 2938 788 2938 
Q 734 2938 698 2973 
Q 663 3009 663 3059 
Q 663 3209 827 3465 
Q 991 3722 1280 3869 
Q 1569 4016 1872 4016 
Q 2363 4016 2716 3675 
Q 3069 3334 3069 2903 
Q 3069 2722 3009 2570 
Q 2950 2419 2808 2239 
Q 2666 2059 2297 1697 
Q 1372 784 791 281 
L 791 263 
z
" transform="scale(0.015625)"/>
       </defs>
       <use xlink:href="#CourierNewPSMT-32"/>
       <use xlink:href="#CourierNewPSMT-30" transform="translate(60.009766 0)"/>
      </g>
     </g>
    </g>
    <g id="xtick_3">
     <g id="line2d_5">
      <path d="M 389.485714 367.2 
L 389.485714 43.2 
" clip-path="url(#p89355e77d7)" style="fill: none; stroke: #b0b0b0; stroke-opacity: 0.25; stroke-width: 0.75; stroke-linecap: square"/>
     </g>
     <g id="line2d_6">
      <g>
       <use xlink:href="#m1748aad032" x="389.485714" y="367.2" style="stroke: #000000; stroke-width: 0.8"/>
      </g>
     </g>
     <g id="text_3">
      <!-- 40 -->
      <g transform="translate(377.482589 386.45625) scale(0.2 -0.2)">
       <defs>
        <path id="CourierNewPSMT-34" d="M 2409 1097 
L 669 1097 
L 669 1400 
L 2128 3922 
L 2675 3922 
L 2675 1359 
L 2894 1359 
Q 2991 1359 3031 1323 
Q 3072 1288 3072 1228 
Q 3072 1172 3031 1134 
Q 2991 1097 2894 1097 
L 2675 1097 
L 2675 263 
L 2894 263 
Q 2991 263 3031 227 
Q 3072 191 3072 131 
Q 3072 75 3031 37 
Q 2991 0 2894 0 
L 1919 0 
Q 1822 0 1781 37 
Q 1741 75 1741 131 
Q 1741 191 1781 227 
Q 1822 263 1919 263 
L 2409 263 
L 2409 1097 
z
M 2409 1359 
L 2409 3656 
L 2272 3656 
L 944 1359 
L 2409 1359 
z
" transform="scale(0.015625)"/>
       </defs>
       <use xlink:href="#CourierNewPSMT-34"/>
       <use xlink:href="#CourierNewPSMT-30" transform="translate(60.009766 0)"/>
      </g>
     </g>
    </g>
    <g id="text_4">
     <!-- (A) Language Usage [%] -->
     <g transform="translate(155.965625 406.675) scale(0.2 -0.2)">
      <defs>
       <path id="CourierNewPSMT-28" d="M 1891 1556 
Q 1891 1916 1984 2319 
Q 2078 2722 2343 3250 
Q 2609 3778 2731 3888 
Q 2769 3922 2813 3922 
Q 2869 3922 2908 3884 
Q 2947 3847 2947 3794 
Q 2947 3763 2925 3725 
Q 2581 3094 2434 2581 
Q 2288 2069 2288 1556 
Q 2288 1041 2434 528 
Q 2581 16 2925 -613 
Q 2947 -650 2947 -681 
Q 2947 -734 2908 -773 
Q 2869 -813 2813 -813 
Q 2769 -813 2731 -778 
Q 2616 -672 2353 -156 
Q 2091 359 1991 756 
Q 1891 1153 1891 1556 
z
" transform="scale(0.015625)"/>
       <path id="CourierNewPSMT-41" d="M 2784 1222 
L 1059 1222 
L 706 263 
L 1209 263 
Q 1303 263 1343 227 
Q 1384 191 1384 131 
Q 1384 75 1343 37 
Q 1303 0 1209 0 
L 228 0 
Q 134 0 93 37 
Q 53 75 53 131 
Q 53 191 93 227 
Q 134 263 228 263 
L 431 263 
L 1591 3394 
L 816 3394 
Q 722 3394 681 3430 
Q 641 3466 641 3525 
Q 641 3584 681 3620 
Q 722 3656 816 3656 
L 2138 3656 
L 3419 263 
L 3622 263 
Q 3716 263 3756 227 
Q 3797 191 3797 131 
Q 3797 75 3756 37 
Q 3716 0 3622 0 
L 2644 0 
Q 2547 0 2506 37 
Q 2466 75 2466 131 
Q 2466 191 2506 227 
Q 2547 263 2644 263 
L 3144 263 
L 2784 1222 
z
M 2684 1484 
L 1959 3394 
L 1863 3394 
L 1159 1484 
L 2684 1484 
z
" transform="scale(0.015625)"/>
       <path id="CourierNewPSMT-29" d="M 1997 1553 
Q 1997 1194 1903 792 
Q 1809 391 1543 -139 
Q 1278 -669 1156 -775 
Q 1119 -813 1075 -813 
Q 1019 -813 980 -773 
Q 941 -734 941 -681 
Q 941 -650 963 -613 
Q 1306 16 1453 528 
Q 1600 1041 1600 1553 
Q 1600 2069 1453 2581 
Q 1306 3094 963 3725 
Q 941 3763 941 3794 
Q 941 3847 980 3884 
Q 1019 3922 1075 3922 
Q 1119 3922 1156 3888 
Q 1272 3781 1534 3265 
Q 1797 2750 1897 2353 
Q 1997 1956 1997 1553 
z
" transform="scale(0.015625)"/>
       <path id="CourierNewPSMT-20" transform="scale(0.015625)"/>
       <path id="CourierNewPSMT-4c" d="M 1466 3394 
L 1466 263 
L 3209 263 
L 3209 1306 
Q 3209 1400 3246 1440 
Q 3284 1481 3344 1481 
Q 3400 1481 3437 1442 
Q 3475 1403 3475 1306 
L 3475 0 
L 575 0 
Q 481 0 440 37 
Q 400 75 400 131 
Q 400 191 440 227 
Q 481 263 575 263 
L 1200 263 
L 1200 3394 
L 575 3394 
Q 481 3394 440 3430 
Q 400 3466 400 3525 
Q 400 3584 440 3620 
Q 481 3656 575 3656 
L 2091 3656 
Q 2184 3656 2225 3620 
Q 2266 3584 2266 3525 
Q 2266 3466 2225 3430 
Q 2184 3394 2091 3394 
L 1466 3394 
z
" transform="scale(0.015625)"/>
       <path id="CourierNewPSMT-61" d="M 2675 0 
L 2675 378 
Q 2103 -103 1453 -103 
Q 981 -103 715 136 
Q 450 375 450 722 
Q 450 1103 800 1387 
Q 1150 1672 1822 1672 
Q 2003 1672 2215 1648 
Q 2428 1625 2675 1575 
L 2675 2000 
Q 2675 2216 2475 2375 
Q 2275 2534 1875 2534 
Q 1569 2534 1016 2356 
Q 916 2325 888 2325 
Q 838 2325 802 2362 
Q 766 2400 766 2456 
Q 766 2509 797 2541 
Q 841 2588 1150 2669 
Q 1638 2800 1888 2800 
Q 2384 2800 2662 2554 
Q 2941 2309 2941 2000 
L 2941 263 
L 3291 263 
Q 3388 263 3428 227 
Q 3469 191 3469 131 
Q 3469 75 3428 37 
Q 3388 0 3291 0 
L 2675 0 
z
M 2675 1306 
Q 2491 1359 2284 1384 
Q 2078 1409 1850 1409 
Q 1278 1409 956 1163 
Q 713 978 713 722 
Q 713 484 898 321 
Q 1084 159 1441 159 
Q 1781 159 2073 295 
Q 2366 431 2675 728 
L 2675 1306 
z
" transform="scale(0.015625)"/>
       <path id="CourierNewPSMT-6e" d="M 1072 2706 
L 1072 2309 
Q 1347 2588 1569 2694 
Q 1791 2800 2069 2800 
Q 2369 2800 2616 2672 
Q 2791 2578 2933 2361 
Q 3075 2144 3075 1916 
L 3075 263 
L 3297 263 
Q 3391 263 3431 227 
Q 3472 191 3472 131 
Q 3472 75 3431 37 
Q 3391 0 3297 0 
L 2594 0 
Q 2497 0 2456 37 
Q 2416 75 2416 131 
Q 2416 191 2456 227 
Q 2497 263 2594 263 
L 2813 263 
L 2813 1872 
Q 2813 2150 2609 2342 
Q 2406 2534 2066 2534 
Q 1806 2534 1615 2429 
Q 1425 2325 1072 1909 
L 1072 263 
L 1369 263 
Q 1463 263 1503 227 
Q 1544 191 1544 131 
Q 1544 75 1503 37 
Q 1463 0 1369 0 
L 513 0 
Q 419 0 378 37 
Q 338 75 338 131 
Q 338 191 378 227 
Q 419 263 513 263 
L 809 263 
L 809 2441 
L 588 2441 
Q 494 2441 453 2478 
Q 413 2516 413 2575 
Q 413 2631 453 2668 
Q 494 2706 588 2706 
L 1072 2706 
z
" transform="scale(0.015625)"/>
       <path id="CourierNewPSMT-67" d="M 2803 2225 
L 2803 2706 
L 3419 2706 
Q 3513 2706 3553 2668 
Q 3594 2631 3594 2572 
Q 3594 2516 3553 2478 
Q 3513 2441 3419 2441 
L 3066 2441 
L 3066 -181 
Q 3066 -444 2953 -650 
Q 2878 -788 2703 -934 
Q 2528 -1081 2384 -1143 
Q 2241 -1206 2000 -1206 
L 1256 -1206 
Q 1163 -1206 1122 -1170 
Q 1081 -1134 1081 -1075 
Q 1081 -1016 1122 -978 
Q 1163 -941 1256 -941 
L 2009 -944 
Q 2241 -944 2427 -825 
Q 2613 -706 2734 -478 
Q 2803 -347 2803 -144 
L 2803 644 
Q 2381 66 1716 66 
Q 1175 66 783 467 
Q 391 869 391 1434 
Q 391 2000 783 2400 
Q 1175 2800 1716 2800 
Q 2381 2800 2803 2225 
z
M 2803 1434 
Q 2803 1897 2486 2215 
Q 2169 2534 1728 2534 
Q 1288 2534 972 2214 
Q 656 1894 656 1434 
Q 656 972 972 651 
Q 1288 331 1728 331 
Q 2169 331 2486 651 
Q 2803 972 2803 1434 
z
" transform="scale(0.015625)"/>
       <path id="CourierNewPSMT-75" d="M 2819 0 
L 2819 384 
Q 2281 -103 1656 -103 
Q 1272 -103 1072 106 
Q 813 381 813 747 
L 813 2441 
L 459 2441 
Q 366 2441 325 2478 
Q 284 2516 284 2575 
Q 284 2631 325 2668 
Q 366 2706 459 2706 
L 1075 2706 
L 1075 747 
Q 1075 491 1237 325 
Q 1400 159 1644 159 
Q 2284 159 2819 747 
L 2819 2441 
L 2334 2441 
Q 2241 2441 2200 2478 
Q 2159 2516 2159 2575 
Q 2159 2631 2200 2668 
Q 2241 2706 2334 2706 
L 3081 2706 
L 3081 263 
L 3303 263 
Q 3397 263 3437 227 
Q 3478 191 3478 131 
Q 3478 75 3437 37 
Q 3397 0 3303 0 
L 2819 0 
z
" transform="scale(0.015625)"/>
       <path id="CourierNewPSMT-65" d="M 3341 1291 
L 666 1291 
Q 734 781 1092 470 
Q 1450 159 1978 159 
Q 2272 159 2594 256 
Q 2916 353 3119 513 
Q 3178 559 3222 559 
Q 3272 559 3309 520 
Q 3347 481 3347 428 
Q 3347 375 3297 325 
Q 3147 169 2764 33 
Q 2381 -103 1978 -103 
Q 1303 -103 851 339 
Q 400 781 400 1409 
Q 400 1981 823 2390 
Q 1247 2800 1872 2800 
Q 2516 2800 2931 2379 
Q 3347 1959 3341 1291 
z
M 3075 1556 
Q 2997 1991 2664 2262 
Q 2331 2534 1872 2534 
Q 1413 2534 1081 2265 
Q 750 1997 669 1556 
L 3075 1556 
z
" transform="scale(0.015625)"/>
       <path id="CourierNewPSMT-55" d="M 3191 3394 
L 3191 1200 
Q 3191 647 2822 272 
Q 2453 -103 1931 -103 
Q 1581 -103 1309 50 
Q 1038 203 847 514 
Q 656 825 656 1200 
L 656 3394 
L 434 3394 
Q 341 3394 300 3430 
Q 259 3466 259 3525 
Q 259 3584 303 3625 
Q 341 3656 434 3656 
L 1403 3656 
Q 1497 3656 1537 3620 
Q 1578 3584 1578 3525 
Q 1578 3466 1537 3430 
Q 1497 3394 1403 3394 
L 919 3394 
L 919 1200 
Q 919 766 1216 462 
Q 1513 159 1919 159 
Q 2178 159 2392 278 
Q 2606 397 2767 644 
Q 2928 891 2928 1200 
L 2928 3394 
L 2444 3394 
Q 2350 3394 2309 3430 
Q 2269 3466 2269 3525 
Q 2269 3584 2309 3620 
Q 2350 3656 2444 3656 
L 3413 3656 
Q 3506 3656 3547 3620 
Q 3588 3584 3588 3525 
Q 3588 3466 3547 3430 
Q 3506 3394 3413 3394 
L 3191 3394 
z
" transform="scale(0.015625)"/>
       <path id="CourierNewPSMT-73" d="M 2788 2534 
Q 2788 2625 2825 2665 
Q 2863 2706 2919 2706 
Q 2978 2706 3015 2665 
Q 3053 2625 3053 2528 
L 3053 2078 
Q 3053 1984 3015 1943 
Q 2978 1903 2919 1903 
Q 2866 1903 2830 1937 
Q 2794 1972 2788 2050 
Q 2769 2238 2594 2359 
Q 2338 2534 1916 2534 
Q 1475 2534 1231 2356 
Q 1047 2222 1047 2056 
Q 1047 1869 1266 1744 
Q 1416 1656 1834 1609 
Q 2381 1550 2594 1475 
Q 2897 1366 3045 1172 
Q 3194 978 3194 753 
Q 3194 419 2872 158 
Q 2550 -103 1928 -103 
Q 1306 -103 909 213 
Q 909 106 896 75 
Q 884 44 851 22 
Q 819 0 778 0 
Q 722 0 684 40 
Q 647 81 647 175 
L 647 716 
Q 647 809 683 850 
Q 719 891 778 891 
Q 834 891 873 852 
Q 913 813 913 747 
Q 913 603 984 506 
Q 1094 356 1333 257 
Q 1572 159 1919 159 
Q 2431 159 2681 350 
Q 2931 541 2931 753 
Q 2931 997 2678 1144 
Q 2422 1291 1933 1341 
Q 1444 1391 1231 1472 
Q 1019 1553 900 1715 
Q 781 1878 781 2066 
Q 781 2403 1112 2601 
Q 1444 2800 1903 2800 
Q 2447 2800 2788 2534 
z
" transform="scale(0.015625)"/>
       <path id="CourierNewPSMT-5b" d="M 2053 3656 
L 2053 -547 
L 2691 -547 
Q 2784 -547 2825 -583 
Q 2866 -619 2866 -678 
Q 2866 -738 2825 -773 
Q 2784 -809 2691 -809 
L 1791 -809 
L 1791 3922 
L 2691 3922 
Q 2784 3922 2825 3884 
Q 2866 3847 2866 3788 
Q 2866 3731 2825 3693 
Q 2784 3656 2691 3656 
L 2053 3656 
z
" transform="scale(0.015625)"/>
       <path id="CourierNewPSMT-25" d="M 2319 3175 
Q 2319 2838 2083 2600 
Q 1847 2363 1519 2363 
Q 1188 2363 953 2600 
Q 719 2838 719 3175 
Q 719 3513 953 3748 
Q 1188 3984 1519 3984 
Q 1850 3984 2084 3748 
Q 2319 3513 2319 3175 
z
M 2131 3175 
Q 2131 3434 1951 3615 
Q 1772 3797 1519 3797 
Q 1266 3797 1086 3615 
Q 906 3434 906 3175 
Q 906 2916 1086 2734 
Q 1266 2553 1519 2553 
Q 1772 2553 1951 2734 
Q 2131 2916 2131 3175 
z
M 3169 2266 
L 738 1475 
Q 694 1463 672 1463 
Q 638 1463 611 1491 
Q 584 1519 584 1556 
Q 584 1588 606 1619 
Q 622 1638 678 1656 
L 3109 2447 
Q 3153 2459 3178 2459 
Q 3209 2459 3236 2431 
Q 3263 2403 3263 2366 
Q 3263 2334 3241 2303 
Q 3225 2284 3169 2266 
z
M 3128 734 
Q 3128 397 2892 161 
Q 2656 -75 2325 -75 
Q 1997 -75 1761 162 
Q 1525 400 1525 734 
Q 1525 1072 1759 1309 
Q 1994 1547 2325 1547 
Q 2656 1547 2892 1309 
Q 3128 1072 3128 734 
z
M 2938 734 
Q 2938 997 2758 1176 
Q 2578 1356 2325 1356 
Q 2072 1356 1892 1175 
Q 1713 994 1713 734 
Q 1713 478 1892 295 
Q 2072 113 2325 113 
Q 2578 113 2758 294 
Q 2938 475 2938 734 
z
" transform="scale(0.015625)"/>
       <path id="CourierNewPSMT-5d" d="M 1797 -547 
L 1797 3656 
L 1163 3656 
Q 1069 3656 1028 3693 
Q 988 3731 988 3788 
Q 988 3847 1028 3884 
Q 1069 3922 1163 3922 
L 2063 3922 
L 2063 -809 
L 1163 -809 
Q 1069 -809 1028 -773 
Q 988 -738 988 -678 
Q 988 -622 1028 -584 
Q 1069 -547 1163 -547 
L 1797 -547 
z
" transform="scale(0.015625)"/>
      </defs>
      <use xlink:href="#CourierNewPSMT-28"/>
      <use xlink:href="#CourierNewPSMT-41" transform="translate(60.009766 0)"/>
      <use xlink:href="#CourierNewPSMT-29" transform="translate(120.019531 0)"/>
      <use xlink:href="#CourierNewPSMT-20" transform="translate(180.029297 0)"/>
      <use xlink:href="#CourierNewPSMT-4c" transform="translate(240.039062 0)"/>
      <use xlink:href="#CourierNewPSMT-61" transform="translate(300.048828 0)"/>
      <use xlink:href="#CourierNewPSMT-6e" transform="translate(360.058594 0)"/>
      <use xlink:href="#CourierNewPSMT-67" transform="translate(420.068359 0)"/>
      <use xlink:href="#CourierNewPSMT-75" transform="translate(480.078125 0)"/>
      <use xlink:href="#CourierNewPSMT-61" transform="translate(540.087891 0)"/>
      <use xlink:href="#CourierNewPSMT-67" transform="translate(600.097656 0)"/>
      <use xlink:href="#CourierNewPSMT-65" transform="translate(660.107422 0)"/>
      <use xlink:href="#CourierNewPSMT-20" transform="translate(720.117188 0)"/>
      <use xlink:href="#CourierNewPSMT-55" transform="translate(780.126953 0)"/>
      <use xlink:href="#CourierNewPSMT-73" transform="translate(840.136719 0)"/>
      <use xlink:href="#CourierNewPSMT-61" transform="translate(900.146484 0)"/>
      <use xlink:href="#CourierNewPSMT-67" transform="translate(960.15625 0)"/>
      <use xlink:href="#CourierNewPSMT-65" transform="translate(1020.166016 0)"/>
      <use xlink:href="#CourierNewPSMT-20" transform="translate(1080.175781 0)"/>
      <use xlink:href="#CourierNewPSMT-5b" transform="translate(1140.185547 0)"/>
      <use xlink:href="#CourierNewPSMT-25" transform="translate(1200.195312 0)"/>
      <use xlink:href="#CourierNewPSMT-5d" transform="translate(1260.205078 0)"/>
     </g>
    </g>
   </g>
   <g id="matplotlib.axis_2">
    <g id="ytick_1">
     <g id="line2d_7">
      <path d="M 115.2 345.853728 
L 460.8 345.853728 
" clip-path="url(#p89355e77d7)" style="fill: none; stroke: #b0b0b0; stroke-opacity: 0.25; stroke-width: 0.75; stroke-linecap: square"/>
     </g>
     <g id="line2d_8">
      <defs>
       <path id="md334f016dd" d="M 0 0 
L -3.5 0 
" style="stroke: #000000; stroke-width: 0.8"/>
      </defs>
      <g>
       <use xlink:href="#md334f016dd" x="115.2" y="345.853728" style="stroke: #000000; stroke-width: 0.8"/>
      </g>
     </g>
    </g>
    <g id="ytick_2">
     <g id="line2d_9">
      <path d="M 115.2 329.306231 
L 460.8 329.306231 
" clip-path="url(#p89355e77d7)" style="fill: none; stroke: #b0b0b0; stroke-opacity: 0.25; stroke-width: 0.75; stroke-linecap: square"/>
     </g>
     <g id="line2d_10">
      <g>
       <use xlink:href="#md334f016dd" x="115.2" y="329.306231" style="stroke: #000000; stroke-width: 0.8"/>
      </g>
     </g>
     <g id="text_5">
      <!-- Fortran -->
      <g transform="translate(24.178125 335.434356) scale(0.2 -0.2)">
       <defs>
        <path id="CourierNewPSMT-46" d="M 1288 1766 
L 1288 263 
L 2188 263 
Q 2281 263 2322 227 
Q 2363 191 2363 131 
Q 2363 75 2322 37 
Q 2281 0 2188 0 
L 672 0 
Q 578 0 537 37 
Q 497 75 497 131 
Q 497 191 537 227 
Q 578 263 672 263 
L 1025 263 
L 1025 3394 
L 672 3394 
Q 578 3394 537 3430 
Q 497 3466 497 3525 
Q 497 3584 544 3625 
Q 578 3656 672 3656 
L 3563 3656 
L 3563 2753 
Q 3563 2659 3525 2618 
Q 3488 2578 3431 2578 
Q 3372 2578 3334 2618 
Q 3297 2659 3297 2753 
L 3297 3394 
L 1288 3394 
L 1288 2028 
L 2228 2028 
L 2228 2325 
Q 2228 2419 2265 2459 
Q 2303 2500 2363 2500 
Q 2419 2500 2456 2459 
Q 2494 2419 2494 2325 
L 2494 1469 
Q 2494 1375 2456 1334 
Q 2419 1294 2363 1294 
Q 2303 1294 2265 1334 
Q 2228 1375 2228 1469 
L 2228 1766 
L 1288 1766 
z
" transform="scale(0.015625)"/>
        <path id="CourierNewPSMT-6f" d="M 3388 1347 
Q 3388 747 2958 322 
Q 2528 -103 1922 -103 
Q 1309 -103 881 323 
Q 453 750 453 1347 
Q 453 1947 881 2373 
Q 1309 2800 1922 2800 
Q 2528 2800 2958 2375 
Q 3388 1950 3388 1347 
z
M 3122 1347 
Q 3122 1841 2770 2187 
Q 2419 2534 1919 2534 
Q 1419 2534 1067 2186 
Q 716 1838 716 1347 
Q 716 859 1067 509 
Q 1419 159 1919 159 
Q 2419 159 2770 507 
Q 3122 856 3122 1347 
z
" transform="scale(0.015625)"/>
        <path id="CourierNewPSMT-72" d="M 1606 2706 
L 1606 2044 
Q 2119 2506 2373 2639 
Q 2628 2772 2844 2772 
Q 3078 2772 3279 2614 
Q 3481 2456 3481 2375 
Q 3481 2316 3442 2277 
Q 3403 2238 3344 2238 
Q 3313 2238 3291 2248 
Q 3269 2259 3209 2319 
Q 3100 2428 3019 2468 
Q 2938 2509 2859 2509 
Q 2688 2509 2445 2371 
Q 2203 2234 1606 1700 
L 1606 263 
L 2769 263 
Q 2866 263 2906 227 
Q 2947 191 2947 131 
Q 2947 75 2906 37 
Q 2866 0 2769 0 
L 709 0 
Q 616 0 575 36 
Q 534 72 534 128 
Q 534 181 573 217 
Q 613 253 709 253 
L 1344 253 
L 1344 2441 
L 859 2441 
Q 766 2441 725 2478 
Q 684 2516 684 2575 
Q 684 2631 723 2668 
Q 763 2706 859 2706 
L 1606 2706 
z
" transform="scale(0.015625)"/>
        <path id="CourierNewPSMT-74" d="M 1381 2706 
L 2806 2706 
Q 2900 2706 2940 2668 
Q 2981 2631 2981 2572 
Q 2981 2516 2940 2478 
Q 2900 2441 2806 2441 
L 1381 2441 
L 1381 694 
Q 1381 466 1564 312 
Q 1747 159 2100 159 
Q 2366 159 2675 239 
Q 2984 319 3156 419 
Q 3219 459 3259 459 
Q 3309 459 3346 420 
Q 3384 381 3384 328 
Q 3384 281 3344 241 
Q 3244 138 2858 17 
Q 2472 -103 2119 -103 
Q 1659 -103 1387 112 
Q 1116 328 1116 694 
L 1116 2441 
L 631 2441 
Q 538 2441 497 2478 
Q 456 2516 456 2575 
Q 456 2631 497 2668 
Q 538 2706 631 2706 
L 1116 2706 
L 1116 3481 
Q 1116 3575 1153 3615 
Q 1191 3656 1247 3656 
Q 1306 3656 1343 3615 
Q 1381 3575 1381 3481 
L 1381 2706 
z
" transform="scale(0.015625)"/>
       </defs>
       <use xlink:href="#CourierNewPSMT-46"/>
       <use xlink:href="#CourierNewPSMT-6f" transform="translate(60.009766 0)"/>
       <use xlink:href="#CourierNewPSMT-72" transform="translate(120.019531 0)"/>
       <use xlink:href="#CourierNewPSMT-74" transform="translate(180.029297 0)"/>
       <use xlink:href="#CourierNewPSMT-72" transform="translate(240.039062 0)"/>
       <use xlink:href="#CourierNewPSMT-61" transform="translate(300.048828 0)"/>
       <use xlink:href="#CourierNewPSMT-6e" transform="translate(360.058594 0)"/>
      </g>
     </g>
    </g>
    <g id="ytick_3">
     <g id="line2d_11">
      <path d="M 115.2 312.758733 
L 460.8 312.758733 
" clip-path="url(#p89355e77d7)" style="fill: none; stroke: #b0b0b0; stroke-opacity: 0.25; stroke-width: 0.75; stroke-linecap: square"/>
     </g>
     <g id="line2d_12">
      <g>
       <use xlink:href="#md334f016dd" x="115.2" y="312.758733" style="stroke: #000000; stroke-width: 0.8"/>
      </g>
     </g>
    </g>
    <g id="ytick_4">
     <g id="line2d_13">
      <path d="M 115.2 296.211236 
L 460.8 296.211236 
" clip-path="url(#p89355e77d7)" style="fill: none; stroke: #b0b0b0; stroke-opacity: 0.25; stroke-width: 0.75; stroke-linecap: square"/>
     </g>
     <g id="line2d_14">
      <g>
       <use xlink:href="#md334f016dd" x="115.2" y="296.211236" style="stroke: #000000; stroke-width: 0.8"/>
      </g>
     </g>
    </g>
    <g id="ytick_5">
     <g id="line2d_15">
      <path d="M 115.2 279.663739 
L 460.8 279.663739 
" clip-path="url(#p89355e77d7)" style="fill: none; stroke: #b0b0b0; stroke-opacity: 0.25; stroke-width: 0.75; stroke-linecap: square"/>
     </g>
     <g id="line2d_16">
      <g>
       <use xlink:href="#md334f016dd" x="115.2" y="279.663739" style="stroke: #000000; stroke-width: 0.8"/>
      </g>
     </g>
     <g id="text_6">
      <!-- Rust -->
      <g transform="translate(60.1875 285.791864) scale(0.2 -0.2)">
       <defs>
        <path id="CourierNewPSMT-52" d="M 1066 1631 
L 1066 263 
L 1550 263 
Q 1647 263 1687 227 
Q 1728 191 1728 131 
Q 1728 75 1687 37 
Q 1647 0 1550 0 
L 450 0 
Q 356 0 315 37 
Q 275 75 275 131 
Q 275 191 315 227 
Q 356 263 450 263 
L 803 263 
L 803 3394 
L 450 3394 
Q 356 3394 315 3430 
Q 275 3466 275 3525 
Q 275 3584 315 3620 
Q 356 3656 450 3656 
L 2038 3656 
Q 2528 3656 2864 3345 
Q 3200 3034 3200 2644 
Q 3200 2363 2992 2114 
Q 2784 1866 2297 1700 
Q 2578 1506 2778 1262 
Q 2978 1019 3419 263 
L 3619 263 
Q 3713 263 3753 227 
Q 3794 191 3794 131 
Q 3794 75 3753 37 
Q 3713 0 3619 0 
L 3269 0 
Q 2781 872 2514 1169 
Q 2247 1466 1900 1631 
L 1066 1631 
z
M 1066 1894 
L 1781 1894 
Q 2125 1894 2404 2019 
Q 2684 2144 2811 2312 
Q 2938 2481 2938 2656 
Q 2938 2919 2673 3156 
Q 2409 3394 2031 3394 
L 1066 3394 
L 1066 1894 
z
" transform="scale(0.015625)"/>
       </defs>
       <use xlink:href="#CourierNewPSMT-52"/>
       <use xlink:href="#CourierNewPSMT-75" transform="translate(60.009766 0)"/>
       <use xlink:href="#CourierNewPSMT-73" transform="translate(120.019531 0)"/>
       <use xlink:href="#CourierNewPSMT-74" transform="translate(180.029297 0)"/>
      </g>
     </g>
    </g>
    <g id="ytick_6">
     <g id="line2d_17">
      <path d="M 115.2 263.116241 
L 460.8 263.116241 
" clip-path="url(#p89355e77d7)" style="fill: none; stroke: #b0b0b0; stroke-opacity: 0.25; stroke-width: 0.75; stroke-linecap: square"/>
     </g>
     <g id="line2d_18">
      <g>
       <use xlink:href="#md334f016dd" x="115.2" y="263.116241" style="stroke: #000000; stroke-width: 0.8"/>
      </g>
     </g>
    </g>
    <g id="ytick_7">
     <g id="line2d_19">
      <path d="M 115.2 246.568744 
L 460.8 246.568744 
" clip-path="url(#p89355e77d7)" style="fill: none; stroke: #b0b0b0; stroke-opacity: 0.25; stroke-width: 0.75; stroke-linecap: square"/>
     </g>
     <g id="line2d_20">
      <g>
       <use xlink:href="#md334f016dd" x="115.2" y="246.568744" style="stroke: #000000; stroke-width: 0.8"/>
      </g>
     </g>
    </g>
    <g id="ytick_8">
     <g id="line2d_21">
      <path d="M 115.2 230.021246 
L 460.8 230.021246 
" clip-path="url(#p89355e77d7)" style="fill: none; stroke: #b0b0b0; stroke-opacity: 0.25; stroke-width: 0.75; stroke-linecap: square"/>
     </g>
     <g id="line2d_22">
      <g>
       <use xlink:href="#md334f016dd" x="115.2" y="230.021246" style="stroke: #000000; stroke-width: 0.8"/>
      </g>
     </g>
     <g id="text_7">
      <!-- Go -->
      <g transform="translate(84.19375 236.149371) scale(0.2 -0.2)">
       <defs>
        <path id="CourierNewPSMT-47" d="M 3347 1356 
L 3347 231 
Q 3047 66 2748 -18 
Q 2450 -103 2153 -103 
Q 1731 -103 1411 22 
Q 1091 147 869 372 
Q 647 597 523 875 
Q 400 1153 400 1581 
L 400 2063 
Q 400 2494 614 2901 
Q 828 3309 1200 3525 
Q 1572 3741 2009 3741 
Q 2644 3741 3081 3394 
Q 3081 3547 3092 3578 
Q 3103 3609 3137 3632 
Q 3172 3656 3216 3656 
Q 3272 3656 3309 3615 
Q 3347 3575 3347 3481 
L 3347 2888 
Q 3347 2791 3309 2752 
Q 3272 2713 3216 2713 
Q 3163 2713 3127 2748 
Q 3091 2784 3088 2875 
Q 3069 3141 2742 3309 
Q 2416 3478 2031 3478 
Q 1669 3478 1376 3320 
Q 1084 3163 831 2719 
Q 663 2428 663 2059 
L 663 1581 
Q 663 928 1063 543 
Q 1463 159 2166 159 
Q 2403 159 2606 209 
Q 2809 259 3081 384 
L 3081 1356 
L 2178 1356 
Q 2084 1356 2043 1392 
Q 2003 1428 2003 1488 
Q 2003 1547 2043 1584 
Q 2084 1622 2178 1622 
L 3441 1619 
Q 3534 1619 3575 1583 
Q 3616 1547 3616 1488 
Q 3616 1447 3591 1412 
Q 3566 1378 3534 1367 
Q 3503 1356 3347 1356 
z
" transform="scale(0.015625)"/>
       </defs>
       <use xlink:href="#CourierNewPSMT-47"/>
       <use xlink:href="#CourierNewPSMT-6f" transform="translate(60.009766 0)"/>
      </g>
     </g>
    </g>
    <g id="ytick_9">
     <g id="line2d_23">
      <path d="M 115.2 213.473749 
L 460.8 213.473749 
" clip-path="url(#p89355e77d7)" style="fill: none; stroke: #b0b0b0; stroke-opacity: 0.25; stroke-width: 0.75; stroke-linecap: square"/>
     </g>
     <g id="line2d_24">
      <g>
       <use xlink:href="#md334f016dd" x="115.2" y="213.473749" style="stroke: #000000; stroke-width: 0.8"/>
      </g>
     </g>
    </g>
    <g id="ytick_10">
     <g id="line2d_25">
      <path d="M 115.2 196.926251 
L 460.8 196.926251 
" clip-path="url(#p89355e77d7)" style="fill: none; stroke: #b0b0b0; stroke-opacity: 0.25; stroke-width: 0.75; stroke-linecap: square"/>
     </g>
     <g id="line2d_26">
      <g>
       <use xlink:href="#md334f016dd" x="115.2" y="196.926251" style="stroke: #000000; stroke-width: 0.8"/>
      </g>
     </g>
    </g>
    <g id="ytick_11">
     <g id="line2d_27">
      <path d="M 115.2 180.378754 
L 460.8 180.378754 
" clip-path="url(#p89355e77d7)" style="fill: none; stroke: #b0b0b0; stroke-opacity: 0.25; stroke-width: 0.75; stroke-linecap: square"/>
     </g>
     <g id="line2d_28">
      <g>
       <use xlink:href="#md334f016dd" x="115.2" y="180.378754" style="stroke: #000000; stroke-width: 0.8"/>
      </g>
     </g>
     <g id="text_8">
      <!-- C -->
      <g transform="translate(96.196875 186.506879) scale(0.2 -0.2)">
       <defs>
        <path id="CourierNewPSMT-43" d="M 3075 3297 
L 3075 3481 
Q 3075 3575 3111 3615 
Q 3147 3656 3206 3656 
Q 3266 3656 3302 3615 
Q 3338 3575 3338 3481 
L 3338 2753 
Q 3338 2656 3302 2615 
Q 3266 2575 3206 2575 
Q 3153 2575 3117 2612 
Q 3081 2650 3075 2734 
Q 3059 2997 2791 3200 
Q 2428 3478 1966 3478 
Q 1663 3478 1394 3344 
Q 1194 3247 1075 3106 
Q 869 2863 747 2566 
Q 659 2347 659 2072 
L 659 1613 
Q 659 1025 1084 592 
Q 1509 159 2072 159 
Q 2409 159 2676 306 
Q 2944 453 3194 750 
Q 3247 816 3313 816 
Q 3369 816 3403 781 
Q 3438 747 3438 694 
Q 3438 622 3303 475 
Q 3047 188 2726 42 
Q 2406 -103 2078 -103 
Q 1794 -103 1500 6 
Q 1275 91 1128 203 
Q 981 316 767 583 
Q 553 850 475 1076 
Q 397 1303 397 1575 
L 397 2109 
Q 397 2497 605 2901 
Q 813 3306 1173 3523 
Q 1534 3741 1956 3741 
Q 2606 3741 3075 3297 
z
" transform="scale(0.015625)"/>
       </defs>
       <use xlink:href="#CourierNewPSMT-43"/>
      </g>
     </g>
    </g>
    <g id="ytick_12">
     <g id="line2d_29">
      <path d="M 115.2 163.831256 
L 460.8 163.831256 
" clip-path="url(#p89355e77d7)" style="fill: none; stroke: #b0b0b0; stroke-opacity: 0.25; stroke-width: 0.75; stroke-linecap: square"/>
     </g>
     <g id="line2d_30">
      <g>
       <use xlink:href="#md334f016dd" x="115.2" y="163.831256" style="stroke: #000000; stroke-width: 0.8"/>
      </g>
     </g>
    </g>
    <g id="ytick_13">
     <g id="line2d_31">
      <path d="M 115.2 147.283759 
L 460.8 147.283759 
" clip-path="url(#p89355e77d7)" style="fill: none; stroke: #b0b0b0; stroke-opacity: 0.25; stroke-width: 0.75; stroke-linecap: square"/>
     </g>
     <g id="line2d_32">
      <g>
       <use xlink:href="#md334f016dd" x="115.2" y="147.283759" style="stroke: #000000; stroke-width: 0.8"/>
      </g>
     </g>
    </g>
    <g id="ytick_14">
     <g id="line2d_33">
      <path d="M 115.2 130.736261 
L 460.8 130.736261 
" clip-path="url(#p89355e77d7)" style="fill: none; stroke: #b0b0b0; stroke-opacity: 0.25; stroke-width: 0.75; stroke-linecap: square"/>
     </g>
     <g id="line2d_34">
      <g>
       <use xlink:href="#md334f016dd" x="115.2" y="130.736261" style="stroke: #000000; stroke-width: 0.8"/>
      </g>
     </g>
     <g id="text_9">
      <!-- C++ -->
      <g transform="translate(72.190625 136.864386) scale(0.2 -0.2)">
       <defs>
        <path id="CourierNewPSMT-2b" d="M 2053 1697 
L 2053 384 
Q 2053 291 2015 250 
Q 1978 209 1919 209 
Q 1863 209 1825 250 
Q 1788 291 1788 384 
L 1788 1697 
L 625 1697 
Q 531 1697 490 1733 
Q 450 1769 450 1828 
Q 450 1888 490 1923 
Q 531 1959 625 1959 
L 1788 1959 
L 1788 3266 
Q 1788 3359 1825 3400 
Q 1863 3441 1922 3441 
Q 1978 3441 2015 3400 
Q 2053 3359 2053 3266 
L 2053 1959 
L 3216 1959 
Q 3309 1959 3350 1923 
Q 3391 1888 3391 1828 
Q 3391 1769 3350 1733 
Q 3309 1697 3216 1697 
L 2053 1697 
z
" transform="scale(0.015625)"/>
       </defs>
       <use xlink:href="#CourierNewPSMT-43"/>
       <use xlink:href="#CourierNewPSMT-2b" transform="translate(60.009766 0)"/>
       <use xlink:href="#CourierNewPSMT-2b" transform="translate(120.019531 0)"/>
      </g>
     </g>
    </g>
    <g id="ytick_15">
     <g id="line2d_35">
      <path d="M 115.2 114.188764 
L 460.8 114.188764 
" clip-path="url(#p89355e77d7)" style="fill: none; stroke: #b0b0b0; stroke-opacity: 0.25; stroke-width: 0.75; stroke-linecap: square"/>
     </g>
     <g id="line2d_36">
      <g>
       <use xlink:href="#md334f016dd" x="115.2" y="114.188764" style="stroke: #000000; stroke-width: 0.8"/>
      </g>
     </g>
    </g>
    <g id="ytick_16">
     <g id="line2d_37">
      <path d="M 115.2 97.641267 
L 460.8 97.641267 
" clip-path="url(#p89355e77d7)" style="fill: none; stroke: #b0b0b0; stroke-opacity: 0.25; stroke-width: 0.75; stroke-linecap: square"/>
     </g>
     <g id="line2d_38">
      <g>
       <use xlink:href="#md334f016dd" x="115.2" y="97.641267" style="stroke: #000000; stroke-width: 0.8"/>
      </g>
     </g>
    </g>
    <g id="ytick_17">
     <g id="line2d_39">
      <path d="M 115.2 81.093769 
L 460.8 81.093769 
" clip-path="url(#p89355e77d7)" style="fill: none; stroke: #b0b0b0; stroke-opacity: 0.25; stroke-width: 0.75; stroke-linecap: square"/>
     </g>
     <g id="line2d_40">
      <g>
       <use xlink:href="#md334f016dd" x="115.2" y="81.093769" style="stroke: #000000; stroke-width: 0.8"/>
      </g>
     </g>
     <g id="text_10">
      <!-- Java -->
      <g transform="translate(60.1875 87.221894) scale(0.2 -0.2)">
       <defs>
        <path id="CourierNewPSMT-4a" d="M 2947 3394 
L 2947 1075 
Q 2947 597 2590 247 
Q 2234 -103 1741 -103 
Q 1444 -103 1158 33 
Q 872 169 534 478 
L 534 1447 
Q 534 1541 571 1581 
Q 609 1622 666 1622 
Q 725 1622 762 1581 
Q 800 1541 800 1447 
L 797 603 
Q 1038 381 1273 270 
Q 1509 159 1741 159 
Q 1997 159 2225 284 
Q 2397 378 2539 600 
Q 2681 822 2681 1075 
L 2681 3394 
L 1653 3394 
Q 1556 3394 1515 3430 
Q 1475 3466 1475 3525 
Q 1475 3584 1515 3620 
Q 1556 3656 1653 3656 
L 3572 3656 
Q 3666 3656 3706 3620 
Q 3747 3584 3747 3525 
Q 3747 3466 3706 3430 
Q 3666 3394 3572 3394 
L 2947 3394 
z
" transform="scale(0.015625)"/>
        <path id="CourierNewPSMT-76" d="M 2150 0 
L 1706 0 
L 628 2441 
L 359 2441 
Q 266 2441 225 2478 
Q 184 2516 184 2575 
Q 184 2631 225 2668 
Q 266 2706 359 2706 
L 1344 2706 
Q 1438 2706 1478 2668 
Q 1519 2631 1519 2572 
Q 1519 2516 1478 2478 
Q 1438 2441 1344 2441 
L 909 2441 
L 1872 263 
L 1988 263 
L 2931 2441 
L 2494 2441 
Q 2400 2441 2359 2478 
Q 2319 2516 2319 2575 
Q 2319 2631 2359 2668 
Q 2400 2706 2494 2706 
L 3481 2706 
Q 3578 2706 3617 2668 
Q 3656 2631 3656 2572 
Q 3656 2516 3617 2478 
Q 3578 2441 3481 2441 
L 3216 2441 
L 2150 0 
z
" transform="scale(0.015625)"/>
       </defs>
       <use xlink:href="#CourierNewPSMT-4a"/>
       <use xlink:href="#CourierNewPSMT-61" transform="translate(60.009766 0)"/>
       <use xlink:href="#CourierNewPSMT-76" transform="translate(120.019531 0)"/>
       <use xlink:href="#CourierNewPSMT-61" transform="translate(180.029297 0)"/>
      </g>
     </g>
    </g>
    <g id="ytick_18">
     <g id="line2d_41">
      <path d="M 115.2 64.546272 
L 460.8 64.546272 
" clip-path="url(#p89355e77d7)" style="fill: none; stroke: #b0b0b0; stroke-opacity: 0.25; stroke-width: 0.75; stroke-linecap: square"/>
     </g>
     <g id="line2d_42">
      <g>
       <use xlink:href="#md334f016dd" x="115.2" y="64.546272" style="stroke: #000000; stroke-width: 0.8"/>
      </g>
     </g>
    </g>
   </g>
   <g id="patch_3">
    <path d="M 115.2 352.472727 
L 128.914286 352.472727 
L 128.914286 339.234729 
L 115.2 339.234729 
z
" clip-path="url(#p89355e77d7)" style="fill: #744e97; fill-opacity: 0.333333"/>
   </g>
   <g id="patch_4">
    <path d="M 115.2 335.92523 
L 121.371429 335.92523 
L 121.371429 322.687232 
L 115.2 322.687232 
z
" clip-path="url(#p89355e77d7)" style="fill: #744e97; fill-opacity: 0.666667"/>
   </g>
   <g id="patch_5">
    <path d="M 115.2 319.377732 
L 124.8 319.377732 
L 124.8 306.139734 
L 115.2 306.139734 
z
" clip-path="url(#p89355e77d7)" style="fill: #744e97"/>
   </g>
   <g id="patch_6">
    <path d="M 115.2 302.830235 
L 273.6 302.830235 
L 273.6 289.592237 
L 115.2 289.592237 
z
" clip-path="url(#p89355e77d7)" style="fill: #ce412b; fill-opacity: 0.333333"/>
   </g>
   <g id="patch_7">
    <path d="M 115.2 286.282737 
L 214.628571 286.282737 
L 214.628571 273.04474 
L 115.2 273.04474 
z
" clip-path="url(#p89355e77d7)" style="fill: #ce412b; fill-opacity: 0.666667"/>
   </g>
   <g id="patch_8">
    <path d="M 115.2 269.73524 
L 216.685714 269.73524 
L 216.685714 256.497242 
L 115.2 256.497242 
z
" clip-path="url(#p89355e77d7)" style="fill: #ce412b"/>
   </g>
   <g id="patch_9">
    <path d="M 115.2 253.187743 
L 205.028571 253.187743 
L 205.028571 239.949745 
L 115.2 239.949745 
z
" clip-path="url(#p89355e77d7)" style="fill: #00acd7; fill-opacity: 0.333333"/>
   </g>
   <g id="patch_10">
    <path d="M 115.2 236.640245 
L 234.514286 236.640245 
L 234.514286 223.402247 
L 115.2 223.402247 
z
" clip-path="url(#p89355e77d7)" style="fill: #00acd7; fill-opacity: 0.666667"/>
   </g>
   <g id="patch_11">
    <path d="M 115.2 220.092748 
L 227.657143 220.092748 
L 227.657143 206.85475 
L 115.2 206.85475 
z
" clip-path="url(#p89355e77d7)" style="fill: #00acd7"/>
   </g>
   <g id="patch_12">
    <path d="M 115.2 203.54525 
L 444.342857 203.54525 
L 444.342857 190.307252 
L 115.2 190.307252 
z
" clip-path="url(#p89355e77d7)" style="fill: #659bd3; fill-opacity: 0.333333"/>
   </g>
   <g id="patch_13">
    <path d="M 115.2 186.997753 
L 246.171429 186.997753 
L 246.171429 173.759755 
L 115.2 173.759755 
z
" clip-path="url(#p89355e77d7)" style="fill: #659bd3; fill-opacity: 0.666667"/>
   </g>
   <g id="patch_14">
    <path d="M 115.2 170.450255 
L 266.057143 170.450255 
L 266.057143 157.212257 
L 115.2 157.212257 
z
" clip-path="url(#p89355e77d7)" style="fill: #659bd3"/>
   </g>
   <g id="patch_15">
    <path d="M 115.2 153.902758 
L 421.028571 153.902758 
L 421.028571 140.66476 
L 115.2 140.66476 
z
" clip-path="url(#p89355e77d7)" style="fill: #00599d; fill-opacity: 0.333333"/>
   </g>
   <g id="patch_16">
    <path d="M 115.2 137.35526 
L 264.685714 137.35526 
L 264.685714 124.117263 
L 115.2 124.117263 
z
" clip-path="url(#p89355e77d7)" style="fill: #00599d; fill-opacity: 0.666667"/>
   </g>
   <g id="patch_17">
    <path d="M 115.2 120.807763 
L 276.342857 120.807763 
L 276.342857 107.569765 
L 115.2 107.569765 
z
" clip-path="url(#p89355e77d7)" style="fill: #00599d"/>
   </g>
   <g id="patch_18">
    <path d="M 115.2 104.260266 
L 394.971429 104.260266 
L 394.971429 91.022268 
L 115.2 91.022268 
z
" clip-path="url(#p89355e77d7)" style="fill: #c12f30; fill-opacity: 0.333333"/>
   </g>
   <g id="patch_19">
    <path d="M 115.2 87.712768 
L 318.171429 87.712768 
L 318.171429 74.47477 
L 115.2 74.47477 
z
" clip-path="url(#p89355e77d7)" style="fill: #c12f30; fill-opacity: 0.666667"/>
   </g>
   <g id="patch_20">
    <path d="M 115.2 71.165271 
L 316.8 71.165271 
L 316.8 57.927273 
L 115.2 57.927273 
z
" clip-path="url(#p89355e77d7)" style="fill: #c12f30"/>
   </g>
   <g id="patch_21">
    <path d="M 115.2 367.2 
L 115.2 43.2 
" style="fill: none; stroke: #000000; stroke-width: 0.8; stroke-linejoin: miter; stroke-linecap: square"/>
   </g>
   <g id="patch_22">
    <path d="M 460.8 367.2 
L 460.8 43.2 
" style="fill: none; stroke: #000000; stroke-width: 0.8; stroke-linejoin: miter; stroke-linecap: square"/>
   </g>
   <g id="patch_23">
    <path d="M 115.2 367.2 
L 460.8 367.2 
" style="fill: none; stroke: #000000; stroke-width: 0.8; stroke-linejoin: miter; stroke-linecap: square"/>
   </g>
   <g id="patch_24">
    <path d="M 115.2 43.2 
L 460.8 43.2 
" style="fill: none; stroke: #000000; stroke-width: 0.8; stroke-linejoin: miter; stroke-linecap: square"/>
   </g>
   <g id="legend_1">
    <g id="patch_25">
     <path d="M 7.959375 26.6 
L 47.959375 26.6 
L 47.959375 12.6 
L 7.959375 12.6 
z
"/>
    </g>
    <g id="text_11">
     <!-- Total -->
     <g transform="translate(63.959375 26.6) scale(0.2 -0.2)">
      <defs>
       <path id="CourierNewPSMT-54" d="M 2050 3394 
L 2050 263 
L 2731 263 
Q 2825 263 2865 227 
Q 2906 191 2906 131 
Q 2906 75 2865 37 
Q 2825 0 2731 0 
L 1103 0 
Q 1009 0 968 37 
Q 928 75 928 131 
Q 928 191 968 227 
Q 1009 263 1103 263 
L 1784 263 
L 1784 3394 
L 709 3394 
L 709 2484 
Q 709 2388 673 2347 
Q 638 2306 578 2306 
Q 522 2306 484 2347 
Q 447 2388 447 2484 
L 447 3656 
L 3388 3656 
L 3388 2484 
Q 3388 2388 3352 2347 
Q 3316 2306 3256 2306 
Q 3197 2306 3161 2347 
Q 3125 2388 3125 2484 
L 3125 3394 
L 2050 3394 
z
" transform="scale(0.015625)"/>
       <path id="CourierNewPSMT-6c" d="M 2053 3922 
L 2053 263 
L 3084 263 
Q 3181 263 3222 227 
Q 3263 191 3263 131 
Q 3263 75 3222 37 
Q 3181 0 3084 0 
L 759 0 
Q 666 0 625 37 
Q 584 75 584 131 
Q 584 191 625 227 
Q 666 263 759 263 
L 1791 263 
L 1791 3656 
L 1034 3656 
Q 941 3656 898 3693 
Q 856 3731 856 3791 
Q 856 3847 897 3884 
Q 938 3922 1034 3922 
L 2053 3922 
z
" transform="scale(0.015625)"/>
      </defs>
      <use xlink:href="#CourierNewPSMT-54"/>
      <use xlink:href="#CourierNewPSMT-6f" transform="translate(60.009766 0)"/>
      <use xlink:href="#CourierNewPSMT-74" transform="translate(120.019531 0)"/>
      <use xlink:href="#CourierNewPSMT-61" transform="translate(180.029297 0)"/>
      <use xlink:href="#CourierNewPSMT-6c" transform="translate(240.039062 0)"/>
     </g>
    </g>
    <g id="patch_26">
     <path d="M 163.975 26.6 
L 203.975 26.6 
L 203.975 12.6 
L 163.975 12.6 
z
" style="fill-opacity: 0.666667"/>
    </g>
    <g id="text_12">
     <!-- Professionals -->
     <g transform="translate(219.975 26.6) scale(0.2 -0.2)">
      <defs>
       <path id="CourierNewPSMT-50" d="M 1350 1500 
L 1350 263 
L 2250 263 
Q 2344 263 2384 227 
Q 2425 191 2425 131 
Q 2425 75 2384 37 
Q 2344 0 2250 0 
L 734 0 
Q 641 0 600 37 
Q 559 75 559 131 
Q 559 191 600 227 
Q 641 263 734 263 
L 1088 263 
L 1088 3394 
L 734 3394 
Q 641 3394 600 3430 
Q 559 3466 559 3525 
Q 559 3584 600 3620 
Q 641 3656 734 3656 
L 2259 3656 
Q 2800 3656 3142 3337 
Q 3484 3019 3484 2591 
Q 3484 2338 3373 2134 
Q 3263 1931 3106 1816 
Q 2872 1641 2622 1559 
Q 2441 1500 2172 1500 
L 1350 1500 
z
M 1350 1763 
L 2188 1763 
Q 2478 1763 2733 1892 
Q 2988 2022 3105 2209 
Q 3222 2397 3222 2591 
Q 3222 2900 2956 3147 
Q 2691 3394 2284 3394 
L 1350 3394 
L 1350 1763 
z
" transform="scale(0.015625)"/>
       <path id="CourierNewPSMT-66" d="M 1747 2441 
L 1747 263 
L 2900 263 
Q 2994 263 3034 227 
Q 3075 191 3075 131 
Q 3075 75 3034 37 
Q 2994 0 2900 0 
L 847 0 
Q 753 0 712 37 
Q 672 75 672 131 
Q 672 191 712 227 
Q 753 263 847 263 
L 1481 263 
L 1481 2441 
L 913 2441 
Q 819 2441 778 2478 
Q 738 2516 738 2575 
Q 738 2631 778 2668 
Q 819 2706 913 2706 
L 1481 2706 
L 1481 3103 
Q 1481 3434 1750 3678 
Q 2019 3922 2463 3922 
Q 2834 3922 3256 3853 
Q 3416 3828 3448 3793 
Q 3481 3759 3481 3703 
Q 3481 3647 3443 3611 
Q 3406 3575 3344 3575 
Q 3319 3575 3259 3584 
Q 2788 3656 2463 3656 
Q 2119 3656 1933 3487 
Q 1747 3319 1747 3103 
L 1747 2706 
L 2975 2706 
Q 3069 2706 3109 2668 
Q 3150 2631 3150 2572 
Q 3150 2516 3109 2478 
Q 3069 2441 2975 2441 
L 1747 2441 
z
" transform="scale(0.015625)"/>
       <path id="CourierNewPSMT-69" d="M 2050 4053 
L 2050 3375 
L 1663 3375 
L 1663 4053 
L 2050 4053 
z
M 2059 2706 
L 2059 263 
L 3091 263 
Q 3188 263 3228 227 
Q 3269 191 3269 131 
Q 3269 75 3228 37 
Q 3188 0 3091 0 
L 766 0 
Q 672 0 631 37 
Q 591 75 591 131 
Q 591 191 631 227 
Q 672 263 766 263 
L 1797 263 
L 1797 2441 
L 1031 2441 
Q 938 2441 895 2478 
Q 853 2516 853 2572 
Q 853 2631 893 2668 
Q 934 2706 1031 2706 
L 2059 2706 
z
" transform="scale(0.015625)"/>
      </defs>
      <use xlink:href="#CourierNewPSMT-50"/>
      <use xlink:href="#CourierNewPSMT-72" transform="translate(60.009766 0)"/>
      <use xlink:href="#CourierNewPSMT-6f" transform="translate(120.019531 0)"/>
      <use xlink:href="#CourierNewPSMT-66" transform="translate(180.029297 0)"/>
      <use xlink:href="#CourierNewPSMT-65" transform="translate(240.039062 0)"/>
      <use xlink:href="#CourierNewPSMT-73" transform="translate(300.048828 0)"/>
      <use xlink:href="#CourierNewPSMT-73" transform="translate(360.058594 0)"/>
      <use xlink:href="#CourierNewPSMT-69" transform="translate(420.068359 0)"/>
      <use xlink:href="#CourierNewPSMT-6f" transform="translate(480.078125 0)"/>
      <use xlink:href="#CourierNewPSMT-6e" transform="translate(540.087891 0)"/>
      <use xlink:href="#CourierNewPSMT-61" transform="translate(600.097656 0)"/>
      <use xlink:href="#CourierNewPSMT-6c" transform="translate(660.107422 0)"/>
      <use xlink:href="#CourierNewPSMT-73" transform="translate(720.117188 0)"/>
     </g>
    </g>
    <g id="patch_27">
     <path d="M 416.015625 26.6 
L 456.015625 26.6 
L 456.015625 12.6 
L 416.015625 12.6 
z
" style="fill-opacity: 0.333333"/>
    </g>
    <g id="text_13">
     <!-- Learners -->
     <g transform="translate(472.015625 26.6) scale(0.2 -0.2)">
      <use xlink:href="#CourierNewPSMT-4c"/>
      <use xlink:href="#CourierNewPSMT-65" transform="translate(60.009766 0)"/>
      <use xlink:href="#CourierNewPSMT-61" transform="translate(120.019531 0)"/>
      <use xlink:href="#CourierNewPSMT-72" transform="translate(180.029297 0)"/>
      <use xlink:href="#CourierNewPSMT-6e" transform="translate(240.039062 0)"/>
      <use xlink:href="#CourierNewPSMT-65" transform="translate(300.048828 0)"/>
      <use xlink:href="#CourierNewPSMT-72" transform="translate(360.058594 0)"/>
      <use xlink:href="#CourierNewPSMT-73" transform="translate(420.068359 0)"/>
     </g>
    </g>
   </g>
  </g>
 </g>
 <defs>
  <clipPath id="p89355e77d7">
   <rect x="115.2" y="43.2" width="345.6" height="324"/>
  </clipPath>
 </defs>
</svg>
